<svg width="1345" height="1044" viewBox="0 0 1345 1044" fill="none" xmlns="http://www.w3.org/2000/svg">
<rect y="79.1934" width="1345" height="964.807" rx="40" fill="#98C1D9" fill-opacity="0.39"/>
<ellipse rx="105" ry="98.2879" transform="matrix(-1 0 0 1 1143 104.524)" fill="#FFD5CD"/>
<path d="M1135.12 36.9965C1135.12 36.9965 1089.2 43.7162 1092.69 104.913C1092.7 105.14 1087.38 108.445 1086.96 108.798C1083.25 111.937 1080.14 115.957 1078.78 120.66C1073.93 137.406 1091.26 154.661 1105.27 159.241C1110.51 160.952 1116.04 161.782 1121.59 161.933C1157.63 162.915 1205.35 141.487 1207.8 99.6405C1207.88 98.139 1207.91 96.636 1207.86 95.1364C1207.65 87.1907 1205.6 79.4524 1202.51 72.2673C1202.51 72.2675 1182.45 25.7279 1135.12 36.9965Z" fill="#E2BA87"/>
<g style="mix-blend-mode:multiply" opacity="0.5">
<path d="M1091.65 105.604C1092.08 106.745 1092.51 108.201 1092.61 109.034C1093.06 112.603 1091.67 116.279 1089.4 118.914C1087.24 121.416 1084.22 123.029 1081.34 123.627C1080.36 123.83 1079.19 123.93 1078.16 123.957C1079.6 113.635 1088.47 107.487 1091.65 105.604Z" fill="#FCC3B8"/>
</g>
<g style="mix-blend-mode:multiply" opacity="0.5">
<path d="M1155.74 132.654C1147.49 130.884 1142.64 122.479 1144.92 113.88C1147.19 105.281 1155.72 99.7441 1163.97 101.513C1172.23 103.283 1177.07 111.688 1174.8 120.287C1172.53 128.886 1164 134.423 1155.74 132.654Z" fill="#FCC3B8"/>
</g>
<path opacity="0.3" d="M1114.49 108.549C1114.49 108.549 1107.21 102.067 1101.57 108.161Z" fill="#8B5E3C"/>
<path d="M1182.41 140.307C1205.97 152.025 1228.17 124.14 1221.58 108.113C1217.39 97.89 1204.53 96.8643 1196.88 105.99C1192.37 111.376 1188.66 118.299 1186.5 124.947" fill="#E2BA87"/>
<path opacity="0.3" d="M1202.51 115.39C1199.38 118.275 1196.82 122.593 1193.74 124.971C1194.39 120.908 1195.37 116.575 1197.55 112.944C1199.76 109.255 1203.7 106.256 1207.64 106.583C1212.52 106.989 1216.43 112.433 1216.84 117.311C1216.6 114.392 1210.43 112.304 1208.05 112.536C1204.19 119.068 1202.47 132.052 1202.47 132.052C1199.54 124.628 1200.92 118.859 1202.51 115.39Z" fill="#8B5E3C"/>
<path d="M1207.65 95.2311C1207.69 96.7322 1207.67 98.2367 1207.58 99.7397C1194.3 101.854 1188.02 115.191 1186.53 121.596C1186.53 121.596 1182.58 121.813 1181.65 121.106C1176.77 118.71 1168.09 108.889 1172.42 88.7675C1174.51 79.6213 1173.11 72.3392 1156.03 61.0024C1138.95 49.6656 1111.77 56.7559 1106.19 61.0024C1101.73 64.3995 1099.59 65.6843 1099.08 65.9021C1110.99 40.573 1135.09 37.0332 1135.09 37.0332C1185.49 25.071 1202.4 71.8777 1202.56 72.2717C1205.65 79.464 1207.43 87.2775 1207.65 95.2311Z" fill="#21625A"/>
<path d="M1156.03 35.5238C1134.42 36.6997 1123.1 49.733 1120.13 56.1026C1117.35 68.1233 1102.82 73.8505 1095.91 75.2116C1093.54 82.9205 1092.95 98.6758 1092.95 105.427C1086.39 108.693 1082.43 113.538 1081.27 115.716C1082.84 109.836 1080.92 108.203 1079.7 101.343C1078.48 94.4838 1087.2 85.3377 1090.16 81.7445C1093.12 78.1514 1088.07 65.9021 1091.03 59.3691C1093.99 52.8361 1103.58 47.1198 1108.63 46.6298C1113.69 46.1399 1113.51 39.6069 1128.32 34.0539C1140.17 29.6115 1151.73 33.1828 1156.03 35.5238Z" fill="#238D81"/>
<path d="M1078.31 128.455C1078.73 133.42 1081.79 139.616 1083.19 142.011C1089.11 150.373 1097.85 156.057 1101.31 157.69C1090.72 164.223 1078.02 161.338 1073.25 159.324C1073.95 158.779 1075.52 157.004 1076.22 154.26C1077.09 150.831 1071.16 145.931 1071.86 139.725C1072.42 134.76 1076.39 130.143 1078.31 128.455Z" fill="#238D81"/>
<mask id="mask0" mask-type="alpha" maskUnits="userSpaceOnUse" x="1071" y="31" width="86" height="131">
<path d="M1156.03 35.5238C1134.42 36.6997 1123.1 49.733 1120.13 56.1026C1117.35 68.1233 1102.82 73.8505 1095.91 75.2116C1093.54 82.9205 1092.95 98.6758 1092.95 105.427C1086.39 108.693 1082.43 113.538 1081.27 115.716C1082.84 109.836 1080.92 108.203 1079.7 101.343C1078.48 94.4838 1087.2 85.3377 1090.16 81.7445C1093.12 78.1514 1088.07 65.9021 1091.03 59.3691C1093.99 52.8361 1103.58 47.1198 1108.63 46.6298C1113.69 46.1399 1113.51 39.6069 1128.32 34.0539C1140.17 29.6115 1151.73 33.1828 1156.03 35.5238Z" fill="#238D81"/>
<path d="M1078.31 128.455C1078.73 133.42 1081.79 139.616 1083.19 142.011C1089.11 150.373 1097.85 156.057 1101.31 157.69C1090.72 164.223 1078.02 161.338 1073.25 159.324C1073.95 158.779 1075.52 157.004 1076.22 154.26C1077.09 150.831 1071.16 145.931 1071.86 139.725C1072.42 134.76 1076.39 130.143 1078.31 128.455Z" fill="#238D81"/>
</mask>
<g mask="url(#mask0)">
<path d="M1109.68 64.4321C1114 61.2963 1116.82 55.9392 1117.69 53.6527C1116.47 55.7849 1112.12 60.9258 1104.45 64.4321C1096.78 67.9384 1093.93 71.8816 1093.47 73.4149C1096.26 68.6785 1104.27 68.3519 1109.68 64.4321Z" fill="#DCDCDC" style="mix-blend-mode:multiply"/>
<path d="M1084.58 103.303C1084.3 100.429 1085.28 96.7703 1085.8 95.3004C1085.8 96.8792 1085.98 100.69 1086.67 103.303C1087.37 105.916 1089.17 107.985 1089.98 108.693L1084.58 111.959C1086.85 109.02 1084.93 106.896 1084.58 103.303Z" fill="#DCDCDC" style="mix-blend-mode:multiply"/>
<path d="M1076.57 144.134C1075.03 140.999 1075.93 138.037 1076.57 136.948C1076.57 143.318 1079.35 143.154 1082.14 148.381C1084.93 153.607 1082.84 158.834 1084.58 158.017C1085.98 157.364 1086.56 155.785 1086.67 155.077C1087.37 159.127 1086.38 162.427 1085.8 163.57C1080.92 164.093 1077.61 161.392 1076.57 159.977C1080.92 153.934 1078.48 148.054 1076.57 144.134Z" fill="#DCDCDC" style="mix-blend-mode:multiply"/>
</g>
<path d="M1118.24 116.873C1105.81 117.619 1098.13 116.873 1095.65 116.873C1085.21 115.406 1080.75 132.694 1093.85 141.765C1097.77 144.474 1099.69 144.052 1108.05 144.052C1116.41 144.052 1125.45 146.976 1130.51 145.641C1144.82 141.856 1147.34 132.132 1146.05 126.78C1144.31 119.54 1140.78 115.522 1118.24 116.873Z" fill="white"/>
<mask id="mask1" mask-type="alpha" maskUnits="userSpaceOnUse" x="1085" y="116" width="62" height="30">
<path d="M1118.24 116.873C1105.81 117.619 1098.13 116.873 1095.65 116.873C1085.21 115.406 1080.75 132.694 1093.85 141.765C1097.77 144.474 1099.69 144.052 1108.05 144.052C1116.41 144.052 1125.45 146.976 1130.51 145.641C1144.82 141.856 1147.34 132.132 1146.05 126.78C1144.31 119.54 1140.78 115.522 1118.24 116.873Z" fill="white"/>
</mask>
<g mask="url(#mask1)">
<path fill-rule="evenodd" clip-rule="evenodd" d="M1141.18 146.992L1135.11 111.92L1133.05 112.234L1139.12 147.307L1141.18 146.992ZM1114.24 151.65L1112.75 115.854L1110.66 115.931L1112.15 151.726L1114.24 151.65ZM1090.98 141.918L1095.72 113.714L1093.66 113.409L1088.92 141.613L1090.98 141.918Z" fill="#D1D3D4"/>
</g>
<path d="M1122.4 100.695C1127.46 97.3124 1133.44 97.8001 1136.48 98.6482C1136.68 98.7043 1136.83 98.4528 1136.68 98.3037C1129.63 91.1619 1124.26 96.335 1122.1 100.446C1122.01 100.628 1122.23 100.809 1122.4 100.695Z" fill="#2A1200"/>
<path d="M1094.77 98.1755C1094.78 100.776 1096.03 103.568 1099.24 103.247C1101.94 102.978 1102.63 99.6596 1102.62 98.0261C1102.62 95.1689 1101.09 92.4696 1098.87 92.4656C1096.47 92.4613 1094.77 95.5753 1094.77 98.1755Z" fill="#2A1200"/>
<path d="M1124.55 78.0577C1129.31 77.3309 1134.41 79.0008 1137.84 82.3878C1138.95 83.4799 1139.26 85.4168 1138.1 86.6499C1137.03 87.7907 1135.09 88.1397 1133.91 86.9692C1133.56 86.6183 1133.19 86.2858 1132.79 85.9776C1132.67 85.8816 1132.33 85.7112 1132.23 85.5695C1132.17 85.5327 1132.11 85.4959 1132.05 85.4603C1131.67 85.2392 1131.29 85.0369 1130.9 84.8533C1130.67 84.7484 1130.44 84.6511 1130.21 84.5588C1130.14 84.5301 1130.07 84.5027 1129.99 84.4751C1129.79 84.4421 1129.56 84.3393 1129.37 84.292C1129.13 84.2301 1128.89 84.176 1128.64 84.1282C1128.22 84.0449 1127.79 83.9822 1127.35 83.9414C1127.29 83.9356 1127.23 83.9313 1127.17 83.9268C1126.94 83.9279 1126.71 83.9238 1126.47 83.9326C1125.98 83.952 1125.48 84.0041 1124.99 84.0784C1123.45 84.3139 1121.85 82.8921 1121.81 81.3305C1121.76 79.6116 1122.9 78.3098 1124.55 78.0577Z" fill="#2A1200"/>
<path d="M1092.57 83.1908C1094.29 80.9576 1096.84 79.4922 1099.58 79.0668C1100.32 78.9521 1101.18 79.2182 1101.76 79.6815C1102.33 80.1378 1102.81 80.9421 1102.86 81.693C1102.91 82.4726 1102.74 83.3092 1102.22 83.9222C1101.7 84.5438 1101.04 84.9386 1100.23 85.0642C1100.1 85.0845 1099.97 85.1193 1099.84 85.1461C1099.46 85.2711 1099.08 85.4256 1098.72 85.6068C1098.3 85.8702 1097.92 86.1692 1097.55 86.5038C1097.44 86.6368 1097.31 86.7641 1097.2 86.9055C1096.73 87.5166 1095.97 87.9521 1095.21 88.0475C1094.49 88.1387 1093.59 87.9207 1093.03 87.4315C1092.45 86.9251 1091.99 86.2231 1091.93 85.42C1091.88 84.6194 1092.06 83.8376 1092.57 83.1908Z" fill="#2A1200"/>
</svg>
