<svg width="1345" height="812" viewBox="0 0 1345 812" fill="none" xmlns="http://www.w3.org/2000/svg">
<rect width="1345" height="812" rx="40" fill="#98C1D9" fill-opacity="0.39"/>
<ellipse cx="229" cy="238.229" rx="105" ry="101.771" fill="#FFD5CD"/>
<path d="M236.883 168.308C236.883 168.308 282.796 175.266 279.314 238.631C279.301 238.866 284.623 242.288 285.039 242.654C288.75 245.904 291.863 250.067 293.224 254.936C298.072 272.276 280.741 290.143 266.726 294.885C261.491 296.656 255.958 297.516 250.413 297.672C214.372 298.689 166.655 276.502 164.204 233.172C164.116 231.617 164.094 230.061 164.136 228.508C164.353 220.281 166.403 212.268 169.493 204.829C169.492 204.829 189.55 156.64 236.883 168.308Z" fill="#E2BA87"/>
<g style="mix-blend-mode:multiply" opacity="0.5">
<path d="M280.387 239.377C279.933 240.559 279.489 242.067 279.375 242.928C278.893 246.623 280.257 250.42 282.53 253.137C284.689 255.717 287.721 257.375 290.632 257.983C291.615 258.188 292.801 258.287 293.837 258.312C292.482 247.639 283.575 241.313 280.387 239.377Z" fill="#FCC3B8"/>
</g>
<g style="mix-blend-mode:multiply" opacity="0.5">
<path d="M216.125 267.308C224.45 265.45 229.416 256.747 227.216 247.869C225.016 238.991 216.484 233.3 208.159 235.158C199.834 237.016 194.868 245.719 197.068 254.597C199.268 263.475 207.8 269.166 216.125 267.308Z" fill="#FCC3B8"/>
</g>
<path opacity="0.3" d="M257.509 242.396C257.509 242.396 264.792 235.684 270.43 241.994Z" fill="#8B5E3C"/>
<path d="M189.592 275.179C165.692 287.378 143.592 258.619 150.407 242.023C154.754 231.437 167.733 230.332 175.357 239.743C179.856 245.297 183.524 252.443 185.635 259.31" fill="#E2BA87"/>
<path opacity="0.3" d="M169.559 249.476C172.684 252.448 175.217 256.903 178.299 259.351C177.69 255.153 176.741 250.676 174.585 246.929C172.396 243.123 168.456 240.036 164.481 240.388C159.555 240.824 155.555 246.466 155.086 251.51C155.366 248.492 161.611 246.312 164.005 246.543C167.823 253.283 169.416 266.702 169.416 266.702C172.455 259.017 171.128 253.056 169.559 249.476Z" fill="#8B5E3C"/>
<path d="M164.353 228.606C164.312 230.16 164.334 231.718 164.421 233.275C177.697 235.464 183.985 249.274 185.469 255.905C185.469 255.905 189.419 256.131 190.349 255.398C195.228 252.917 203.907 242.748 199.585 221.914C197.494 212.443 198.888 204.903 215.967 193.164C233.045 181.426 260.232 188.767 265.808 193.164C270.27 196.682 272.408 198.012 272.92 198.238C261.011 172.011 236.913 168.346 236.913 168.346C186.515 155.96 169.605 204.425 169.436 204.833C166.354 212.28 164.57 220.371 164.353 228.606Z" fill="#21625A"/>
<path d="M215.967 166.783C237.576 168 248.904 181.496 251.867 188.091C254.655 200.538 269.178 206.468 276.09 207.877C278.461 215.859 279.053 232.173 279.053 239.163C285.606 242.545 289.567 247.562 290.729 249.817C289.161 243.729 291.078 242.038 292.298 234.935C293.518 227.832 284.804 218.362 281.841 214.642C278.879 210.921 283.933 198.238 280.97 191.473C278.007 184.709 268.422 178.79 263.369 178.282C258.315 177.775 258.489 171.011 243.676 165.261C231.825 160.661 220.265 164.359 215.967 166.783Z" fill="#238D81"/>
<path d="M293.692 263.008C293.274 268.149 290.206 274.564 288.812 277.044C282.895 285.703 274.148 291.588 270.688 293.279C281.284 300.043 293.982 297.056 298.746 294.97C298.049 294.406 296.48 292.569 295.783 289.728C294.912 286.176 300.837 281.103 300.14 274.677C299.582 269.536 295.609 264.755 293.692 263.008Z" fill="#238D81"/>
<mask id="mask0" mask-type="alpha" maskUnits="userSpaceOnUse" x="215" y="163" width="86" height="135">
<path d="M215.967 166.783C237.576 168 248.904 181.496 251.867 188.091C254.655 200.538 269.178 206.468 276.09 207.877C278.461 215.859 279.053 232.173 279.053 239.163C285.606 242.545 289.567 247.562 290.729 249.817C289.161 243.729 291.078 242.038 292.298 234.935C293.518 227.832 284.804 218.362 281.841 214.642C278.879 210.921 283.933 198.238 280.97 191.473C278.007 184.709 268.422 178.79 263.369 178.282C258.315 177.775 258.489 171.011 243.676 165.261C231.825 160.661 220.265 164.359 215.967 166.783Z" fill="#238D81"/>
<path d="M293.692 263.008C293.274 268.149 290.206 274.564 288.812 277.044C282.895 285.703 274.148 291.588 270.688 293.279C281.284 300.043 293.982 297.056 298.746 294.97C298.049 294.406 296.48 292.569 295.783 289.728C294.912 286.176 300.837 281.103 300.14 274.677C299.582 269.536 295.609 264.755 293.692 263.008Z" fill="#238D81"/>
</mask>
<g mask="url(#mask0)">
<path d="M262.323 196.716C258.001 193.469 255.178 187.922 254.306 185.554C255.526 187.762 259.883 193.085 267.551 196.716C275.219 200.346 278.065 204.429 278.53 206.017C275.742 201.113 267.725 200.774 262.323 196.716Z" fill="#DCDCDC" style="mix-blend-mode:multiply"/>
<path d="M287.418 236.964C287.697 233.988 286.721 230.2 286.198 228.678C286.198 230.313 286.024 234.259 285.327 236.964C284.63 239.67 282.829 241.812 282.016 242.545L287.418 245.927C285.153 242.883 287.07 240.685 287.418 236.964Z" fill="#DCDCDC" style="mix-blend-mode:multiply"/>
<path d="M295.435 279.243C296.968 275.996 296.074 272.929 295.435 271.802C295.435 278.397 292.646 278.228 289.858 283.639C287.07 289.051 289.161 294.463 287.418 293.617C286.024 292.941 285.443 291.306 285.327 290.573C284.63 294.767 285.617 298.183 286.198 299.367C291.078 299.908 294.389 297.112 295.435 295.646C291.078 289.389 293.518 283.301 295.435 279.243Z" fill="#DCDCDC" style="mix-blend-mode:multiply"/>
</g>
<path d="M253.757 251.015C266.187 251.787 273.872 251.015 276.351 251.015C286.79 249.496 291.252 267.397 278.147 276.79C274.235 279.594 272.305 279.157 263.95 279.157C255.586 279.157 246.545 282.184 241.495 280.802C227.179 276.884 224.664 266.815 225.949 261.273C227.687 253.777 231.225 249.616 253.757 251.015Z" fill="white"/>
<mask id="mask1" mask-type="alpha" maskUnits="userSpaceOnUse" x="225" y="250" width="62" height="32">
<path d="M253.757 251.015C266.187 251.787 273.872 251.015 276.351 251.015C286.79 249.496 291.252 267.397 278.147 276.79C274.235 279.594 272.305 279.157 263.95 279.157C255.586 279.157 246.545 282.184 241.495 280.802C227.179 276.884 224.664 266.815 225.949 261.273C227.687 253.777 231.225 249.616 253.757 251.015Z" fill="white"/>
</mask>
<g mask="url(#mask1)">
<path fill-rule="evenodd" clip-rule="evenodd" d="M230.815 282.202L236.89 245.886L238.952 246.212L232.877 282.527L230.815 282.202ZM257.762 287.024L259.251 249.96L261.338 250.039L259.849 287.103L257.762 287.024ZM281.021 276.948L276.277 247.744L278.34 247.428L283.085 276.631L281.021 276.948Z" fill="#D1D3D4"/>
</g>
<path d="M249.605 234.269C244.539 230.759 238.555 231.268 235.511 232.148C235.311 232.206 235.158 231.954 235.301 231.804C242.374 224.376 247.75 229.763 249.906 234.025C249.999 234.21 249.775 234.387 249.605 234.269Z" fill="#2A1200"/>
<path d="M277.225 231.656C277.22 234.349 275.965 237.24 272.755 236.908C270.06 236.629 269.372 233.193 269.376 231.502C269.382 228.543 270.908 225.748 273.134 225.744C275.528 225.74 277.231 228.964 277.225 231.656Z" fill="#2A1200"/>
<path d="M247.453 210.825C242.69 210.073 237.585 211.802 234.158 215.309C233.053 216.44 232.744 218.445 233.899 219.722C234.965 220.903 236.905 221.265 238.088 220.053C238.442 219.689 238.812 219.345 239.205 219.026C239.327 218.926 239.666 218.75 239.773 218.603C239.832 218.565 239.89 218.527 239.951 218.49C240.325 218.261 240.71 218.052 241.104 217.862C241.33 217.753 241.558 217.652 241.788 217.557C241.861 217.527 241.934 217.499 242.008 217.47C242.211 217.436 242.443 217.33 242.628 217.281C242.869 217.216 243.11 217.16 243.355 217.111C243.782 217.025 244.212 216.96 244.645 216.918C244.706 216.912 244.765 216.907 244.826 216.902C245.059 216.904 245.292 216.899 245.526 216.908C246.024 216.929 246.519 216.982 247.012 217.059C248.552 217.303 250.148 215.831 250.194 214.214C250.242 212.434 249.102 211.086 247.453 210.825Z" fill="#2A1200"/>
<path d="M279.435 216.14C277.705 213.828 275.163 212.311 272.421 211.87C271.681 211.751 270.817 212.027 270.24 212.507C269.671 212.979 269.193 213.812 269.144 214.589C269.093 215.397 269.257 216.263 269.776 216.898C270.302 217.541 270.962 217.95 271.765 218.08C271.897 218.101 272.025 218.137 272.156 218.165C272.542 218.294 272.916 218.454 273.28 218.642C273.695 218.915 274.083 219.224 274.446 219.571C274.565 219.708 274.69 219.84 274.8 219.987C275.274 220.619 276.034 221.07 276.789 221.169C277.512 221.264 278.412 221.038 278.971 220.531C279.549 220.007 280.013 219.28 280.066 218.448C280.12 217.619 279.936 216.81 279.435 216.14Z" fill="#2A1200"/>
<path d="M363.611 263.3V271.7C363.611 274.4 364.845 275.75 367.311 275.75C369.211 275.75 370.461 274.85 371.061 273.05C371.228 272.483 371.428 272.1 371.661 271.9C371.928 271.7 372.345 271.6 372.911 271.6H383.111C383.411 271.6 383.661 271.717 383.861 271.95C384.095 272.15 384.211 272.4 384.211 272.7C384.211 275.6 383.378 278.033 381.711 280C378.645 283.667 373.861 285.5 367.361 285.5C362.261 285.5 358.195 284.383 355.161 282.15C352.128 279.883 350.611 276.417 350.611 271.75V263.25C350.611 258.683 352.161 255.25 355.261 252.95C358.361 250.65 362.395 249.5 367.361 249.5C373.861 249.5 378.645 251.333 381.711 255C383.378 256.967 384.211 259.4 384.211 262.3C384.211 262.6 384.095 262.867 383.861 263.1C383.661 263.3 383.411 263.4 383.111 263.4H372.911C372.378 263.4 371.978 263.3 371.711 263.1C371.478 262.9 371.261 262.517 371.061 261.95C370.428 260.15 369.178 259.25 367.311 259.25C364.845 259.25 363.611 260.6 363.611 263.3ZM399.165 260.35V262.1C401.498 260.033 404.098 259 406.965 259H409.365C409.732 259 410.048 259.133 410.315 259.4C410.582 259.667 410.715 259.983 410.715 260.35V268.15C410.715 268.517 410.582 268.833 410.315 269.1C410.048 269.367 409.732 269.5 409.365 269.5H402.915C402.015 269.5 401.298 269.717 400.765 270.15C400.265 270.55 399.982 271.1 399.915 271.8V283.65C399.915 284.017 399.782 284.333 399.515 284.6C399.248 284.867 398.932 285 398.565 285H389.065C388.698 285 388.382 284.867 388.115 284.6C387.848 284.333 387.715 284.017 387.715 283.65V260.35C387.715 259.983 387.848 259.667 388.115 259.4C388.382 259.133 388.698 259 389.065 259H397.815C398.182 259 398.498 259.133 398.765 259.4C399.032 259.667 399.165 259.983 399.165 260.35ZM441.129 274.95H426.229V275.2C426.229 277.233 426.879 278.25 428.179 278.25C428.545 278.25 428.995 277.983 429.529 277.45C430.062 276.917 430.645 276.65 431.279 276.65H440.729C441.462 276.65 441.829 277.017 441.829 277.75C441.829 279.383 440.595 281.083 438.129 282.85C435.695 284.617 432.379 285.5 428.179 285.5C424.012 285.5 420.595 284.417 417.929 282.25C415.295 280.05 413.979 277.033 413.979 273.2V270.8C413.979 267.167 415.329 264.217 418.029 261.95C420.729 259.65 424.262 258.5 428.629 258.5C433.029 258.5 436.429 259.783 438.829 262.35C441.262 264.917 442.479 268.167 442.479 272.1V273.6C442.479 273.967 442.345 274.283 442.079 274.55C441.812 274.817 441.495 274.95 441.129 274.95ZM430.229 268.5C430.229 266.5 429.562 265.5 428.229 265.5C426.895 265.5 426.229 266.5 426.229 268.5V268.7H430.229V268.5ZM445.961 277.55C445.961 273.05 449.611 270.167 456.911 268.9L462.211 268.05C462.211 267.05 462.128 266.383 461.961 266.05C461.794 265.683 461.394 265.5 460.761 265.5C460.161 265.5 459.561 265.767 458.961 266.3C458.361 266.833 457.794 267.1 457.261 267.1H448.761C448.028 267.1 447.661 266.75 447.661 266.05C447.661 265.317 447.911 264.55 448.411 263.75C448.944 262.917 449.694 262.1 450.661 261.3C451.661 260.5 453.044 259.833 454.811 259.3C456.611 258.767 458.611 258.5 460.811 258.5C465.278 258.5 468.628 259.433 470.861 261.3C473.094 263.167 474.211 265.833 474.211 269.3V283.65C474.211 284.017 474.078 284.333 473.811 284.6C473.544 284.867 473.228 285 472.861 285H464.111C463.744 285 463.428 284.867 463.161 284.6C462.894 284.333 462.761 284.017 462.761 283.65V282.25C461.194 284.417 458.911 285.5 455.911 285.5C452.911 285.5 450.494 284.75 448.661 283.25C446.861 281.717 445.961 279.817 445.961 277.55ZM459.111 278.1C461.278 278.1 462.361 276.8 462.361 274.2L459.411 274.85C457.944 275.183 457.211 275.8 457.211 276.7C457.211 277.1 457.378 277.433 457.711 277.7C458.044 277.967 458.511 278.1 459.111 278.1ZM493.938 267.75V273.25C493.938 274.917 494.654 275.75 496.088 275.75H500.638C501.004 275.75 501.321 275.883 501.588 276.15C501.854 276.417 501.988 276.733 501.988 277.1V283.65C501.988 284.017 501.854 284.333 501.588 284.6C501.321 284.867 501.004 285 500.638 285H494.988C486.654 285 482.488 281.417 482.488 274.25V267.75H478.538C478.171 267.75 477.854 267.617 477.588 267.35C477.321 267.083 477.188 266.767 477.188 266.4V260.35C477.188 259.983 477.321 259.667 477.588 259.4C477.854 259.133 478.171 259 478.538 259H482.488V250.85C482.488 250.483 482.621 250.167 482.888 249.9C483.154 249.633 483.471 249.5 483.838 249.5H492.588C492.954 249.5 493.271 249.633 493.538 249.9C493.804 250.167 493.938 250.483 493.938 250.85V259H500.238C500.604 259 500.921 259.133 501.188 259.4C501.454 259.667 501.588 259.983 501.588 260.35V266.4C501.588 266.767 501.454 267.083 501.188 267.35C500.921 267.617 500.604 267.75 500.238 267.75H493.938ZM531.9 274.95H517V275.2C517 277.233 517.65 278.25 518.95 278.25C519.317 278.25 519.767 277.983 520.3 277.45C520.833 276.917 521.417 276.65 522.05 276.65H531.5C532.233 276.65 532.6 277.017 532.6 277.75C532.6 279.383 531.367 281.083 528.9 282.85C526.467 284.617 523.15 285.5 518.95 285.5C514.783 285.5 511.367 284.417 508.7 282.25C506.067 280.05 504.75 277.033 504.75 273.2V270.8C504.75 267.167 506.1 264.217 508.8 261.95C511.5 259.65 515.033 258.5 519.4 258.5C523.8 258.5 527.2 259.783 529.6 262.35C532.033 264.917 533.25 268.167 533.25 272.1V273.6C533.25 273.967 533.117 274.283 532.85 274.55C532.583 274.817 532.267 274.95 531.9 274.95ZM521 268.5C521 266.5 520.333 265.5 519 265.5C517.667 265.5 517 266.5 517 268.5V268.7H521V268.5ZM573.834 250H582.884C583.251 250 583.568 250.133 583.834 250.4C584.101 250.667 584.234 250.983 584.234 251.35V283.65C584.234 284.017 584.101 284.333 583.834 284.6C583.568 284.867 583.251 285 582.884 285H574.984C574.118 285 573.434 284.617 572.934 283.85L564.484 271.1V283.65C564.484 284.017 564.351 284.333 564.084 284.6C563.818 284.867 563.501 285 563.134 285H554.084C553.718 285 553.401 284.867 553.134 284.6C552.868 284.333 552.734 284.017 552.734 283.65V251.35C552.734 250.983 552.868 250.667 553.134 250.4C553.401 250.133 553.718 250 554.084 250H561.984C562.918 250 563.601 250.383 564.034 251.15L572.484 265V251.35C572.484 250.983 572.618 250.667 572.884 250.4C573.151 250.133 573.468 250 573.834 250ZM616.373 274.95H601.473V275.2C601.473 277.233 602.123 278.25 603.423 278.25C603.789 278.25 604.239 277.983 604.773 277.45C605.306 276.917 605.889 276.65 606.523 276.65H615.973C616.706 276.65 617.073 277.017 617.073 277.75C617.073 279.383 615.839 281.083 613.373 282.85C610.939 284.617 607.623 285.5 603.423 285.5C599.256 285.5 595.839 284.417 593.173 282.25C590.539 280.05 589.223 277.033 589.223 273.2V270.8C589.223 267.167 590.573 264.217 593.273 261.95C595.973 259.65 599.506 258.5 603.873 258.5C608.273 258.5 611.673 259.783 614.073 262.35C616.506 264.917 617.723 268.167 617.723 272.1V273.6C617.723 273.967 617.589 274.283 617.323 274.55C617.056 274.817 616.739 274.95 616.373 274.95ZM605.473 268.5C605.473 266.5 604.806 265.5 603.473 265.5C602.139 265.5 601.473 266.5 601.473 268.5V268.7H605.473V268.5ZM639.055 259H643.705C644.605 259 645.172 259.4 645.405 260.2L648.655 270.6L651.705 260.2C651.938 259.4 652.505 259 653.405 259H661.105C661.438 259 661.722 259.117 661.955 259.35C662.188 259.583 662.305 259.817 662.305 260.05C662.305 260.283 662.288 260.467 662.255 260.6L654.955 283.75C654.688 284.583 654.138 285 653.305 285H646.605C645.772 285 645.222 284.583 644.955 283.75L641.405 273.65L637.805 283.75C637.538 284.583 636.988 285 636.155 285H629.455C628.622 285 628.072 284.583 627.805 283.75L620.505 260.6C620.472 260.467 620.455 260.283 620.455 260.05C620.455 259.817 620.572 259.583 620.805 259.35C621.038 259.117 621.322 259 621.655 259H629.355C630.255 259 630.822 259.4 631.055 260.2L634.105 270.6L637.355 260.2C637.588 259.4 638.155 259 639.055 259ZM692.005 250H702.855C704.055 250 704.805 250.55 705.105 251.65L716.255 283.55C716.288 283.65 716.305 283.817 716.305 284.05C716.305 284.25 716.188 284.467 715.955 284.7C715.755 284.9 715.505 285 715.205 285H705.955C704.955 285 704.305 284.583 704.005 283.75L702.805 280.45H692.055L690.855 283.75C690.555 284.583 689.905 285 688.905 285H679.655C679.355 285 679.088 284.9 678.855 284.7C678.655 284.467 678.555 284.25 678.555 284.05C678.555 283.817 678.571 283.65 678.605 283.55L689.755 251.65C690.055 250.55 690.805 250 692.005 250ZM694.605 270.7H700.255L697.405 261.4L694.605 270.7ZM731.063 270.25V273.75C731.063 274.883 731.213 275.7 731.513 276.2C731.813 276.7 732.279 276.95 732.913 276.95C733.546 276.95 733.979 276.85 734.213 276.65C734.446 276.417 734.679 276 734.913 275.4C735.179 274.767 735.663 274.45 736.363 274.45H746.113C746.479 274.45 746.796 274.583 747.063 274.85C747.329 275.117 747.463 275.467 747.463 275.9C747.463 276.333 747.313 276.917 747.013 277.65C746.713 278.383 746.196 279.217 745.463 280.15C744.729 281.083 743.829 281.95 742.762 282.75C741.696 283.517 740.296 284.167 738.563 284.7C736.829 285.233 734.913 285.5 732.813 285.5C728.646 285.5 725.263 284.417 722.663 282.25C720.096 280.05 718.813 277.017 718.813 273.15V270.85C718.813 266.983 720.096 263.967 722.663 261.8C725.263 259.6 728.646 258.5 732.813 258.5C735.279 258.5 737.513 258.883 739.513 259.65C741.513 260.383 743.046 261.3 744.113 262.4C745.213 263.467 746.046 264.517 746.613 265.55C747.179 266.583 747.463 267.383 747.463 267.95C747.463 268.483 747.329 268.883 747.063 269.15C746.796 269.417 746.479 269.55 746.113 269.55H736.363C735.729 269.55 735.246 269.217 734.913 268.55C734.446 267.55 733.829 267.05 733.063 267.05C731.729 267.05 731.063 268.117 731.063 270.25ZM762.947 270.25V273.75C762.947 274.883 763.097 275.7 763.397 276.2C763.697 276.7 764.164 276.95 764.797 276.95C765.431 276.95 765.864 276.85 766.097 276.65C766.331 276.417 766.564 276 766.797 275.4C767.064 274.767 767.547 274.45 768.247 274.45H777.997C778.364 274.45 778.681 274.583 778.947 274.85C779.214 275.117 779.347 275.467 779.347 275.9C779.347 276.333 779.197 276.917 778.897 277.65C778.597 278.383 778.081 279.217 777.347 280.15C776.614 281.083 775.714 281.95 774.647 282.75C773.581 283.517 772.181 284.167 770.447 284.7C768.714 285.233 766.797 285.5 764.697 285.5C760.531 285.5 757.147 284.417 754.547 282.25C751.981 280.05 750.697 277.017 750.697 273.15V270.85C750.697 266.983 751.981 263.967 754.547 261.8C757.147 259.6 760.531 258.5 764.697 258.5C767.164 258.5 769.397 258.883 771.397 259.65C773.397 260.383 774.931 261.3 775.997 262.4C777.097 263.467 777.931 264.517 778.497 265.55C779.064 266.583 779.347 267.383 779.347 267.95C779.347 268.483 779.214 268.883 778.947 269.15C778.681 269.417 778.364 269.55 777.997 269.55H768.247C767.614 269.55 767.131 269.217 766.797 268.55C766.331 267.55 765.714 267.05 764.947 267.05C763.614 267.05 762.947 268.117 762.947 270.25ZM782.582 273.7V270.3C782.582 266.5 783.932 263.583 786.632 261.55C789.332 259.517 792.815 258.5 797.082 258.5C801.349 258.5 804.832 259.517 807.532 261.55C810.232 263.583 811.582 266.5 811.582 270.3V273.7C811.582 277.533 810.282 280.467 807.682 282.5C805.082 284.5 801.549 285.5 797.082 285.5C792.615 285.5 789.082 284.5 786.482 282.5C783.882 280.467 782.582 277.533 782.582 273.7ZM799.332 274.1V269.9C799.332 268.633 799.165 267.75 798.832 267.25C798.499 266.75 797.915 266.5 797.082 266.5C796.249 266.5 795.665 266.75 795.332 267.25C794.999 267.75 794.832 268.633 794.832 269.9V274.1C794.832 275.433 794.999 276.333 795.332 276.8C795.665 277.267 796.249 277.5 797.082 277.5C797.915 277.5 798.499 277.25 798.832 276.75C799.165 276.25 799.332 275.367 799.332 274.1ZM815.602 274.15V260.35C815.602 259.983 815.735 259.667 816.002 259.4C816.268 259.133 816.585 259 816.952 259H826.502C826.868 259 827.185 259.133 827.452 259.4C827.718 259.667 827.852 259.983 827.852 260.35V273.8C827.852 275.633 828.685 276.55 830.352 276.55C832.018 276.55 832.852 275.633 832.852 273.8V260.35C832.852 259.983 832.985 259.667 833.252 259.4C833.518 259.133 833.835 259 834.202 259H843.702C844.068 259 844.385 259.133 844.652 259.4C844.918 259.667 845.052 259.983 845.052 260.35V283.65C845.052 284.017 844.918 284.333 844.652 284.6C844.385 284.867 844.068 285 843.702 285H834.952C834.585 285 834.268 284.867 834.002 284.6C833.735 284.333 833.602 284.017 833.602 283.65V282C832.035 284.333 829.268 285.5 825.302 285.5C822.568 285.5 820.268 284.55 818.402 282.65C816.535 280.717 815.602 277.883 815.602 274.15ZM879.481 269.85V283.65C879.481 284.017 879.348 284.333 879.081 284.6C878.815 284.867 878.498 285 878.131 285H868.581C868.215 285 867.898 284.867 867.631 284.6C867.365 284.333 867.231 284.017 867.231 283.65V270.2C867.231 268.367 866.398 267.45 864.731 267.45C863.065 267.45 862.231 268.367 862.231 270.2V283.65C862.231 284.017 862.098 284.333 861.831 284.6C861.565 284.867 861.248 285 860.881 285H851.381C851.015 285 850.698 284.867 850.431 284.6C850.165 284.333 850.031 284.017 850.031 283.65V260.35C850.031 259.983 850.165 259.667 850.431 259.4C850.698 259.133 851.015 259 851.381 259H860.131C860.498 259 860.815 259.133 861.081 259.4C861.348 259.667 861.481 259.983 861.481 260.35V262C862.348 260.967 863.515 260.133 864.981 259.5C866.481 258.833 868.081 258.5 869.781 258.5C872.515 258.5 874.815 259.467 876.681 261.4C878.548 263.3 879.481 266.117 879.481 269.85ZM899.211 267.75V273.25C899.211 274.917 899.928 275.75 901.361 275.75H905.911C906.278 275.75 906.594 275.883 906.861 276.15C907.128 276.417 907.261 276.733 907.261 277.1V283.65C907.261 284.017 907.128 284.333 906.861 284.6C906.594 284.867 906.278 285 905.911 285H900.261C891.928 285 887.761 281.417 887.761 274.25V267.75H883.811C883.444 267.75 883.128 267.617 882.861 267.35C882.594 267.083 882.461 266.767 882.461 266.4V260.35C882.461 259.983 882.594 259.667 882.861 259.4C883.128 259.133 883.444 259 883.811 259H887.761V250.85C887.761 250.483 887.894 250.167 888.161 249.9C888.428 249.633 888.744 249.5 889.111 249.5H897.861C898.228 249.5 898.544 249.633 898.811 249.9C899.078 250.167 899.211 250.483 899.211 250.85V259H905.511C905.878 259 906.194 259.133 906.461 259.4C906.728 259.667 906.861 259.983 906.861 260.35V266.4C906.861 266.767 906.728 267.083 906.461 267.35C906.194 267.617 905.878 267.75 905.511 267.75H899.211ZM927.375 250H942.275C947.075 250 950.825 251.033 953.525 253.1C956.225 255.167 957.575 258.217 957.575 262.25C957.575 266.283 956.225 269.267 953.525 271.2C950.859 273.133 947.109 274.1 942.275 274.1H939.025V283.65C939.025 284.017 938.892 284.333 938.625 284.6C938.359 284.867 938.042 285 937.675 285H927.375C927.009 285 926.692 284.867 926.425 284.6C926.159 284.333 926.025 284.017 926.025 283.65V251.35C926.025 250.983 926.159 250.667 926.425 250.4C926.692 250.133 927.009 250 927.375 250ZM938.775 259.3V264.85H942.275C942.875 264.85 943.409 264.633 943.875 264.2C944.342 263.733 944.575 263.083 944.575 262.25C944.575 261.417 944.392 260.717 944.025 260.15C943.659 259.583 943.075 259.3 942.275 259.3H938.775ZM972.505 260.35V262.1C974.838 260.033 977.438 259 980.305 259H982.705C983.071 259 983.388 259.133 983.655 259.4C983.921 259.667 984.055 259.983 984.055 260.35V268.15C984.055 268.517 983.921 268.833 983.655 269.1C983.388 269.367 983.071 269.5 982.705 269.5H976.255C975.355 269.5 974.638 269.717 974.105 270.15C973.605 270.55 973.321 271.1 973.255 271.8V283.65C973.255 284.017 973.121 284.333 972.855 284.6C972.588 284.867 972.271 285 971.905 285H962.405C962.038 285 961.721 284.867 961.455 284.6C961.188 284.333 961.055 284.017 961.055 283.65V260.35C961.055 259.983 961.188 259.667 961.455 259.4C961.721 259.133 962.038 259 962.405 259H971.155C971.521 259 971.838 259.133 972.105 259.4C972.371 259.667 972.505 259.983 972.505 260.35ZM987.318 273.7V270.3C987.318 266.5 988.668 263.583 991.368 261.55C994.068 259.517 997.552 258.5 1001.82 258.5C1006.09 258.5 1009.57 259.517 1012.27 261.55C1014.97 263.583 1016.32 266.5 1016.32 270.3V273.7C1016.32 277.533 1015.02 280.467 1012.42 282.5C1009.82 284.5 1006.29 285.5 1001.82 285.5C997.352 285.5 993.818 284.5 991.218 282.5C988.618 280.467 987.318 277.533 987.318 273.7ZM1004.07 274.1V269.9C1004.07 268.633 1003.9 267.75 1003.57 267.25C1003.24 266.75 1002.65 266.5 1001.82 266.5C1000.99 266.5 1000.4 266.75 1000.07 267.25C999.735 267.75 999.568 268.633 999.568 269.9V274.1C999.568 275.433 999.735 276.333 1000.07 276.8C1000.4 277.267 1000.99 277.5 1001.82 277.5C1002.65 277.5 1003.24 277.25 1003.57 276.75C1003.9 276.25 1004.07 275.367 1004.07 274.1ZM1035.09 258.4V259H1040.74C1041.1 259 1041.42 259.133 1041.69 259.4C1041.95 259.667 1042.09 259.983 1042.09 260.35V266.4C1042.09 266.767 1041.95 267.083 1041.69 267.35C1041.42 267.617 1041.1 267.75 1040.74 267.75H1035.09V283.65C1035.09 284.017 1034.95 284.333 1034.69 284.6C1034.42 284.867 1034.1 285 1033.74 285H1024.99C1024.62 285 1024.3 284.867 1024.04 284.6C1023.77 284.333 1023.64 284.017 1023.64 283.65V267.75H1020.19C1019.82 267.75 1019.5 267.617 1019.24 267.35C1018.97 267.083 1018.84 266.767 1018.84 266.4V260.35C1018.84 259.983 1018.97 259.667 1019.24 259.4C1019.5 259.133 1019.82 259 1020.19 259H1023.64V258.15C1023.64 254.35 1024.79 251.717 1027.09 250.25C1029.39 248.75 1032.57 248 1036.64 248H1041.29C1041.65 248 1041.97 248.133 1042.24 248.4C1042.5 248.667 1042.64 248.983 1042.64 249.35V255.4C1042.64 255.767 1042.5 256.083 1042.24 256.35C1041.97 256.617 1041.65 256.75 1041.29 256.75H1037.24C1035.8 256.75 1035.09 257.3 1035.09 258.4ZM1056.43 285H1047.48C1047.11 285 1046.79 284.867 1046.53 284.6C1046.26 284.333 1046.13 284.017 1046.13 283.65V260.35C1046.13 259.983 1046.26 259.667 1046.53 259.4C1046.79 259.133 1047.11 259 1047.48 259H1056.43C1056.79 259 1057.11 259.133 1057.38 259.4C1057.64 259.667 1057.78 259.983 1057.78 260.35V283.65C1057.78 284.017 1057.64 284.333 1057.38 284.6C1057.11 284.867 1056.79 285 1056.43 285ZM1057.53 249.35V255.4C1057.53 255.767 1057.39 256.083 1057.13 256.35C1056.86 256.617 1056.54 256.75 1056.18 256.75H1047.73C1047.36 256.75 1047.04 256.617 1046.78 256.35C1046.51 256.083 1046.38 255.767 1046.38 255.4V249.35C1046.38 248.983 1046.51 248.667 1046.78 248.4C1047.04 248.133 1047.36 248 1047.73 248H1056.18C1056.54 248 1056.86 248.133 1057.13 248.4C1057.39 248.667 1057.53 248.983 1057.53 249.35ZM1073.08 285H1064.13C1063.76 285 1063.44 284.867 1063.18 284.6C1062.91 284.333 1062.78 284.017 1062.78 283.65V250.85C1062.78 250.483 1062.91 250.167 1063.18 249.9C1063.44 249.633 1063.76 249.5 1064.13 249.5H1073.08C1073.44 249.5 1073.76 249.633 1074.03 249.9C1074.29 250.167 1074.43 250.483 1074.43 250.85V283.65C1074.43 284.017 1074.29 284.333 1074.03 284.6C1073.76 284.867 1073.44 285 1073.08 285ZM1105.83 274.95H1090.93V275.2C1090.93 277.233 1091.58 278.25 1092.88 278.25C1093.24 278.25 1093.69 277.983 1094.23 277.45C1094.76 276.917 1095.34 276.65 1095.98 276.65H1105.43C1106.16 276.65 1106.53 277.017 1106.53 277.75C1106.53 279.383 1105.29 281.083 1102.83 282.85C1100.39 284.617 1097.08 285.5 1092.88 285.5C1088.71 285.5 1085.29 284.417 1082.63 282.25C1079.99 280.05 1078.68 277.033 1078.68 273.2V270.8C1078.68 267.167 1080.03 264.217 1082.73 261.95C1085.43 259.65 1088.96 258.5 1093.33 258.5C1097.73 258.5 1101.13 259.783 1103.53 262.35C1105.96 264.917 1107.18 268.167 1107.18 272.1V273.6C1107.18 273.967 1107.04 274.283 1106.78 274.55C1106.51 274.817 1106.19 274.95 1105.83 274.95ZM1094.93 268.5C1094.93 266.5 1094.26 265.5 1092.93 265.5C1091.59 265.5 1090.93 266.5 1090.93 268.5V268.7H1094.93V268.5ZM1128.01 250H1142.91C1147.71 250 1151.46 251.033 1154.16 253.1C1156.86 255.167 1158.21 258.217 1158.21 262.25C1158.21 266.283 1156.86 269.267 1154.16 271.2C1151.49 273.133 1147.74 274.1 1142.91 274.1H1139.66V283.65C1139.66 284.017 1139.53 284.333 1139.26 284.6C1138.99 284.867 1138.68 285 1138.31 285H1128.01C1127.64 285 1127.33 284.867 1127.06 284.6C1126.79 284.333 1126.66 284.017 1126.66 283.65V251.35C1126.66 250.983 1126.79 250.667 1127.06 250.4C1127.33 250.133 1127.64 250 1128.01 250ZM1139.41 259.3V264.85H1142.91C1143.51 264.85 1144.04 264.633 1144.51 264.2C1144.98 263.733 1145.21 263.083 1145.21 262.25C1145.21 261.417 1145.03 260.717 1144.66 260.15C1144.29 259.583 1143.71 259.3 1142.91 259.3H1139.41ZM1161.44 277.55C1161.44 273.05 1165.09 270.167 1172.39 268.9L1177.69 268.05C1177.69 267.05 1177.61 266.383 1177.44 266.05C1177.27 265.683 1176.87 265.5 1176.24 265.5C1175.64 265.5 1175.04 265.767 1174.44 266.3C1173.84 266.833 1173.27 267.1 1172.74 267.1H1164.24C1163.51 267.1 1163.14 266.75 1163.14 266.05C1163.14 265.317 1163.39 264.55 1163.89 263.75C1164.42 262.917 1165.17 262.1 1166.14 261.3C1167.14 260.5 1168.52 259.833 1170.29 259.3C1172.09 258.767 1174.09 258.5 1176.29 258.5C1180.76 258.5 1184.11 259.433 1186.34 261.3C1188.57 263.167 1189.69 265.833 1189.69 269.3V283.65C1189.69 284.017 1189.56 284.333 1189.29 284.6C1189.02 284.867 1188.71 285 1188.34 285H1179.59C1179.22 285 1178.91 284.867 1178.64 284.6C1178.37 284.333 1178.24 284.017 1178.24 283.65V282.25C1176.67 284.417 1174.39 285.5 1171.39 285.5C1168.39 285.5 1165.97 284.75 1164.14 283.25C1162.34 281.717 1161.44 279.817 1161.44 277.55ZM1174.59 278.1C1176.76 278.1 1177.84 276.8 1177.84 274.2L1174.89 274.85C1173.42 275.183 1172.69 275.8 1172.69 276.7C1172.69 277.1 1172.86 277.433 1173.19 277.7C1173.52 277.967 1173.99 278.1 1174.59 278.1ZM1193.67 272.55V270C1193.67 266.267 1194.67 263.417 1196.67 261.45C1198.67 259.483 1201.22 258.5 1204.32 258.5C1207.42 258.5 1209.87 259.633 1211.67 261.9V260.35C1211.67 259.983 1211.8 259.667 1212.07 259.4C1212.33 259.133 1212.65 259 1213.02 259H1221.77C1222.13 259 1222.45 259.133 1222.72 259.4C1222.98 259.667 1223.12 259.983 1223.12 260.35L1223.17 284.15C1223.17 288.15 1221.87 291.117 1219.27 293.05C1216.67 295.017 1213.25 296 1209.02 296C1206.38 296 1204.03 295.633 1201.97 294.9C1199.9 294.2 1198.35 293.333 1197.32 292.3C1195.22 290.233 1194.17 288.483 1194.17 287.05C1194.17 286.683 1194.3 286.367 1194.57 286.1C1194.83 285.833 1195.15 285.7 1195.52 285.7H1205.27C1205.87 285.7 1206.35 286.067 1206.72 286.8C1207.12 287.567 1207.8 287.95 1208.77 287.95C1210.2 287.95 1210.92 287.05 1210.92 285.25V281.7C1209.28 283.133 1206.97 283.85 1203.97 283.85C1201 283.85 1198.53 282.95 1196.57 281.15C1194.63 279.35 1193.67 276.483 1193.67 272.55ZM1208.42 275.15C1209.98 275.15 1210.82 274.317 1210.92 272.65V269.95C1210.82 268.283 1209.98 267.45 1208.42 267.45C1206.75 267.45 1205.92 268.417 1205.92 270.35V272.25C1205.92 274.183 1206.75 275.15 1208.42 275.15ZM1254.56 274.95H1239.66V275.2C1239.66 277.233 1240.31 278.25 1241.61 278.25C1241.97 278.25 1242.42 277.983 1242.96 277.45C1243.49 276.917 1244.07 276.65 1244.71 276.65H1254.16C1254.89 276.65 1255.26 277.017 1255.26 277.75C1255.26 279.383 1254.02 281.083 1251.56 282.85C1249.12 284.617 1245.81 285.5 1241.61 285.5C1237.44 285.5 1234.02 284.417 1231.36 282.25C1228.72 280.05 1227.41 277.033 1227.41 273.2V270.8C1227.41 267.167 1228.76 264.217 1231.46 261.95C1234.16 259.65 1237.69 258.5 1242.06 258.5C1246.46 258.5 1249.86 259.783 1252.26 262.35C1254.69 264.917 1255.91 268.167 1255.91 272.1V273.6C1255.91 273.967 1255.77 274.283 1255.51 274.55C1255.24 274.817 1254.92 274.95 1254.56 274.95ZM1243.66 268.5C1243.66 266.5 1242.99 265.5 1241.66 265.5C1240.32 265.5 1239.66 266.5 1239.66 268.5V268.7H1243.66V268.5Z" fill="black"/>
<path d="M406.384 406H401.379C400.935 406 400.562 405.872 400.259 405.615C399.979 405.335 399.815 405.02 399.769 404.67L396.549 382.375V382.27C396.549 382.06 396.619 381.885 396.759 381.745C396.922 381.582 397.109 381.5 397.319 381.5H403.829C404.599 381.5 405.019 381.815 405.089 382.445L406.279 392.315L407.714 387.94C407.947 387.263 408.344 386.925 408.904 386.925H412.474C413.034 386.925 413.43 387.263 413.664 387.94L415.099 392.28L416.289 382.445C416.359 381.815 416.779 381.5 417.549 381.5H424.059C424.269 381.5 424.444 381.582 424.584 381.745C424.747 381.885 424.829 382.06 424.829 382.27V382.375L421.609 404.67C421.562 405.02 421.387 405.335 421.084 405.615C420.804 405.872 420.442 406 419.999 406H414.994C414.27 406 413.792 405.685 413.559 405.055L410.689 397.88L407.819 405.055C407.585 405.685 407.107 406 406.384 406ZM436.516 395.64V405.055C436.516 405.312 436.423 405.533 436.236 405.72C436.05 405.907 435.828 406 435.571 406H428.746C428.49 406 428.268 405.907 428.081 405.72C427.895 405.533 427.801 405.312 427.801 405.055V382.095C427.801 381.838 427.895 381.617 428.081 381.43C428.268 381.243 428.49 381.15 428.746 381.15H435.571C435.828 381.15 436.05 381.243 436.236 381.43C436.423 381.617 436.516 381.838 436.516 382.095V389.62C437.846 388.173 439.55 387.45 441.626 387.45C443.703 387.45 445.418 388.127 446.771 389.48C448.125 390.833 448.801 392.805 448.801 395.395V405.02C448.801 405.277 448.708 405.498 448.521 405.685C448.335 405.872 448.113 405.965 447.856 405.965H440.996C440.74 405.965 440.518 405.872 440.331 405.685C440.145 405.498 440.051 405.277 440.051 405.02V395.64C440.051 394.357 439.456 393.715 438.266 393.715C437.1 393.715 436.516 394.357 436.516 395.64ZM451.612 400.785C451.612 397.635 454.167 395.617 459.277 394.73L462.987 394.135C462.987 393.435 462.929 392.968 462.812 392.735C462.696 392.478 462.416 392.35 461.972 392.35C461.552 392.35 461.132 392.537 460.712 392.91C460.292 393.283 459.896 393.47 459.522 393.47H453.572C453.059 393.47 452.802 393.225 452.802 392.735C452.802 392.222 452.977 391.685 453.327 391.125C453.701 390.542 454.226 389.97 454.902 389.41C455.602 388.85 456.571 388.383 457.807 388.01C459.067 387.637 460.467 387.45 462.007 387.45C465.134 387.45 467.479 388.103 469.042 389.41C470.606 390.717 471.387 392.583 471.387 395.01V405.055C471.387 405.312 471.294 405.533 471.107 405.72C470.921 405.907 470.699 406 470.442 406H464.317C464.061 406 463.839 405.907 463.652 405.72C463.466 405.533 463.372 405.312 463.372 405.055V404.075C462.276 405.592 460.677 406.35 458.577 406.35C456.477 406.35 454.786 405.825 453.502 404.775C452.242 403.702 451.612 402.372 451.612 400.785ZM460.817 401.17C462.334 401.17 463.092 400.26 463.092 398.44L461.027 398.895C460.001 399.128 459.487 399.56 459.487 400.19C459.487 400.47 459.604 400.703 459.837 400.89C460.071 401.077 460.397 401.17 460.817 401.17ZM485.196 393.925V397.775C485.196 398.942 485.697 399.525 486.701 399.525H489.886C490.142 399.525 490.364 399.618 490.551 399.805C490.737 399.992 490.831 400.213 490.831 400.47V405.055C490.831 405.312 490.737 405.533 490.551 405.72C490.364 405.907 490.142 406 489.886 406H485.931C480.097 406 477.181 403.492 477.181 398.475V393.925H474.416C474.159 393.925 473.937 393.832 473.751 393.645C473.564 393.458 473.471 393.237 473.471 392.98V388.745C473.471 388.488 473.564 388.267 473.751 388.08C473.937 387.893 474.159 387.8 474.416 387.8H477.181V382.095C477.181 381.838 477.274 381.617 477.461 381.43C477.647 381.243 477.869 381.15 478.126 381.15H484.251C484.507 381.15 484.729 381.243 484.916 381.43C485.102 381.617 485.196 381.838 485.196 382.095V387.8H489.606C489.862 387.8 490.084 387.893 490.271 388.08C490.457 388.267 490.551 388.488 490.551 388.745V392.98C490.551 393.237 490.457 393.458 490.271 393.645C490.084 393.832 489.862 393.925 489.606 393.925H485.196ZM513.941 393.925V397.775C513.941 398.942 514.443 399.525 515.446 399.525H518.631C518.888 399.525 519.109 399.618 519.296 399.805C519.483 399.992 519.576 400.213 519.576 400.47V405.055C519.576 405.312 519.483 405.533 519.296 405.72C519.109 405.907 518.888 406 518.631 406H514.676C508.843 406 505.926 403.492 505.926 398.475V393.925H503.161C502.904 393.925 502.683 393.832 502.496 393.645C502.309 393.458 502.216 393.237 502.216 392.98V388.745C502.216 388.488 502.309 388.267 502.496 388.08C502.683 387.893 502.904 387.8 503.161 387.8H505.926V382.095C505.926 381.838 506.019 381.617 506.206 381.43C506.393 381.243 506.614 381.15 506.871 381.15H512.996C513.253 381.15 513.474 381.243 513.661 381.43C513.848 381.617 513.941 381.838 513.941 382.095V387.8H518.351C518.608 387.8 518.829 387.893 519.016 388.08C519.203 388.267 519.296 388.488 519.296 388.745V392.98C519.296 393.237 519.203 393.458 519.016 393.645C518.829 393.832 518.608 393.925 518.351 393.925H513.941ZM521.685 387.8H527.6C528.136 387.8 528.51 388.08 528.72 388.64L531.59 396.62L534.565 388.64C534.798 388.08 535.195 387.8 535.755 387.8H541.6C541.81 387.8 541.996 387.882 542.16 388.045C542.323 388.185 542.405 388.337 542.405 388.5C542.405 388.663 542.393 388.792 542.37 388.885L532.5 411.81C532.266 412.37 531.858 412.65 531.275 412.65H525.535C525.325 412.65 525.138 412.58 524.975 412.44C524.835 412.3 524.765 412.125 524.765 411.915C524.765 411.728 524.776 411.612 524.8 411.565L527.6 404.845L520.845 388.885C520.821 388.815 520.81 388.733 520.81 388.64C520.903 388.08 521.195 387.8 521.685 387.8ZM564.931 395.535V398.3C564.931 400.913 564.231 402.908 562.831 404.285C561.431 405.662 559.716 406.35 557.686 406.35C555.679 406.35 554.069 405.802 552.856 404.705V411.705C552.856 411.962 552.762 412.183 552.576 412.37C552.389 412.557 552.167 412.65 551.911 412.65H545.436C545.179 412.65 544.957 412.557 544.771 412.37C544.584 412.183 544.491 411.962 544.491 411.705V388.745C544.491 388.488 544.584 388.267 544.771 388.08C544.957 387.893 545.179 387.8 545.436 387.8H551.386C551.642 387.8 551.864 387.893 552.051 388.08C552.237 388.267 552.331 388.488 552.331 388.745V389.795C553.544 388.232 555.259 387.45 557.476 387.45C559.692 387.45 561.489 388.115 562.866 389.445C564.242 390.752 564.931 392.782 564.931 395.535ZM552.856 395.745V398.335C552.926 399.502 553.509 400.085 554.606 400.085C555.772 400.085 556.356 399.408 556.356 398.055V395.745C556.356 394.392 555.772 393.715 554.606 393.715C553.439 393.715 552.856 394.392 552.856 395.745ZM586.384 398.965H575.954V399.14C575.954 400.563 576.409 401.275 577.319 401.275C577.575 401.275 577.89 401.088 578.264 400.715C578.637 400.342 579.045 400.155 579.489 400.155H586.104C586.617 400.155 586.874 400.412 586.874 400.925C586.874 402.068 586.01 403.258 584.284 404.495C582.58 405.732 580.259 406.35 577.319 406.35C574.402 406.35 572.01 405.592 570.144 404.075C568.3 402.535 567.379 400.423 567.379 397.74V396.06C567.379 393.517 568.324 391.452 570.214 389.865C572.104 388.255 574.577 387.45 577.634 387.45C580.714 387.45 583.094 388.348 584.774 390.145C586.477 391.942 587.329 394.217 587.329 396.97V398.02C587.329 398.277 587.235 398.498 587.049 398.685C586.862 398.872 586.64 398.965 586.384 398.965ZM578.754 394.45C578.754 393.05 578.287 392.35 577.354 392.35C576.42 392.35 575.954 393.05 575.954 394.45V394.59H578.754V394.45ZM599.918 398.09V395.71C599.918 393.05 600.863 391.008 602.753 389.585C604.643 388.162 607.081 387.45 610.068 387.45C613.055 387.45 615.493 388.162 617.383 389.585C619.273 391.008 620.218 393.05 620.218 395.71V398.09C620.218 400.773 619.308 402.827 617.488 404.25C615.668 405.65 613.195 406.35 610.068 406.35C606.941 406.35 604.468 405.65 602.648 404.25C600.828 402.827 599.918 400.773 599.918 398.09ZM611.643 398.37V395.43C611.643 394.543 611.526 393.925 611.293 393.575C611.06 393.225 610.651 393.05 610.068 393.05C609.485 393.05 609.076 393.225 608.843 393.575C608.61 393.925 608.493 394.543 608.493 395.43V398.37C608.493 399.303 608.61 399.933 608.843 400.26C609.076 400.587 609.485 400.75 610.068 400.75C610.651 400.75 611.06 400.575 611.293 400.225C611.526 399.875 611.643 399.257 611.643 398.37ZM633.357 387.38V387.8H637.312C637.568 387.8 637.79 387.893 637.977 388.08C638.163 388.267 638.257 388.488 638.257 388.745V392.98C638.257 393.237 638.163 393.458 637.977 393.645C637.79 393.832 637.568 393.925 637.312 393.925H633.357V405.055C633.357 405.312 633.263 405.533 633.077 405.72C632.89 405.907 632.668 406 632.412 406H626.287C626.03 406 625.808 405.907 625.622 405.72C625.435 405.533 625.342 405.312 625.342 405.055V393.925H622.927C622.67 393.925 622.448 393.832 622.262 393.645C622.075 393.458 621.982 393.237 621.982 392.98V388.745C621.982 388.488 622.075 388.267 622.262 388.08C622.448 387.893 622.67 387.8 622.927 387.8H625.342V387.205C625.342 384.545 626.147 382.702 627.757 381.675C629.367 380.625 631.595 380.1 634.442 380.1H637.697C637.953 380.1 638.175 380.193 638.362 380.38C638.548 380.567 638.642 380.788 638.642 381.045V385.28C638.642 385.537 638.548 385.758 638.362 385.945C638.175 386.132 637.953 386.225 637.697 386.225H634.862C633.858 386.225 633.357 386.61 633.357 387.38ZM651.059 398.405V388.745C651.059 388.488 651.152 388.267 651.339 388.08C651.526 387.893 651.747 387.8 652.004 387.8H658.689C658.946 387.8 659.167 387.893 659.354 388.08C659.541 388.267 659.634 388.488 659.634 388.745V398.16C659.634 399.443 660.217 400.085 661.384 400.085C662.551 400.085 663.134 399.443 663.134 398.16V388.745C663.134 388.488 663.227 388.267 663.414 388.08C663.601 387.893 663.822 387.8 664.079 387.8H670.729C670.986 387.8 671.207 387.893 671.394 388.08C671.581 388.267 671.674 388.488 671.674 388.745V405.055C671.674 405.312 671.581 405.533 671.394 405.72C671.207 405.907 670.986 406 670.729 406H664.604C664.347 406 664.126 405.907 663.939 405.72C663.752 405.533 663.659 405.312 663.659 405.055V403.9C662.562 405.533 660.626 406.35 657.849 406.35C655.936 406.35 654.326 405.685 653.019 404.355C651.712 403.002 651.059 401.018 651.059 398.405ZM684.855 400.96C684.855 400.727 684.796 400.54 684.68 400.4C684.376 400.027 683.256 399.665 681.32 399.315C679.383 398.942 677.808 398.3 676.595 397.39C675.405 396.457 674.81 395.162 674.81 393.505C674.81 391.848 675.603 390.425 677.19 389.235C678.776 388.045 680.911 387.45 683.595 387.45C686.301 387.45 688.518 388.01 690.245 389.13C691.971 390.25 692.835 391.382 692.835 392.525C692.835 392.782 692.753 393.003 692.59 393.19C692.45 393.377 692.275 393.47 692.065 393.47H686.185C685.835 393.47 685.403 393.283 684.89 392.91C684.376 392.537 683.991 392.35 683.735 392.35C683.198 392.35 682.93 392.537 682.93 392.91C682.93 393.143 682.988 393.33 683.105 393.47C683.408 393.82 684.68 394.158 686.92 394.485C689.16 394.812 690.828 395.535 691.925 396.655C693.045 397.752 693.605 398.977 693.605 400.33C693.605 402.22 692.753 403.702 691.05 404.775C689.346 405.848 686.931 406.385 683.805 406.385C682.148 406.385 680.678 406.198 679.395 405.825C678.111 405.452 677.131 404.985 676.455 404.425C675.125 403.328 674.46 402.302 674.46 401.345C674.46 401.088 674.541 400.867 674.705 400.68C674.868 400.493 675.066 400.4 675.3 400.4H681.39C681.716 400.4 682.136 400.587 682.65 400.96C683.186 401.31 683.688 401.485 684.155 401.485C684.621 401.485 684.855 401.31 684.855 400.96ZM714.763 398.965H704.333V399.14C704.333 400.563 704.788 401.275 705.698 401.275C705.954 401.275 706.269 401.088 706.643 400.715C707.016 400.342 707.424 400.155 707.868 400.155H714.483C714.996 400.155 715.253 400.412 715.253 400.925C715.253 402.068 714.389 403.258 712.663 404.495C710.959 405.732 708.638 406.35 705.698 406.35C702.781 406.35 700.389 405.592 698.523 404.075C696.679 402.535 695.758 400.423 695.758 397.74V396.06C695.758 393.517 696.703 391.452 698.593 389.865C700.483 388.255 702.956 387.45 706.013 387.45C709.093 387.45 711.473 388.348 713.153 390.145C714.856 391.942 715.708 394.217 715.708 396.97V398.02C715.708 398.277 715.614 398.498 715.428 398.685C715.241 398.872 715.019 398.965 714.763 398.965ZM707.133 394.45C707.133 393.05 706.666 392.35 705.733 392.35C704.799 392.35 704.333 393.05 704.333 394.45V394.59H707.133V394.45ZM726.335 388.745V389.97C727.969 388.523 729.789 387.8 731.795 387.8H733.475C733.732 387.8 733.954 387.893 734.14 388.08C734.327 388.267 734.42 388.488 734.42 388.745V394.205C734.42 394.462 734.327 394.683 734.14 394.87C733.954 395.057 733.732 395.15 733.475 395.15H728.96C728.33 395.15 727.829 395.302 727.455 395.605C727.105 395.885 726.907 396.27 726.86 396.76V405.055C726.86 405.312 726.767 405.533 726.58 405.72C726.394 405.907 726.172 406 725.915 406H719.265C719.009 406 718.787 405.907 718.6 405.72C718.414 405.533 718.32 405.312 718.32 405.055V388.745C718.32 388.488 718.414 388.267 718.6 388.08C718.787 387.893 719.009 387.8 719.265 387.8H725.39C725.647 387.8 725.869 387.893 726.055 388.08C726.242 388.267 726.335 388.488 726.335 388.745ZM746.856 400.785C746.856 397.635 749.411 395.617 754.521 394.73L758.231 394.135C758.231 393.435 758.173 392.968 758.056 392.735C757.94 392.478 757.66 392.35 757.216 392.35C756.796 392.35 756.376 392.537 755.956 392.91C755.536 393.283 755.14 393.47 754.766 393.47H748.816C748.303 393.47 748.046 393.225 748.046 392.735C748.046 392.222 748.221 391.685 748.571 391.125C748.945 390.542 749.47 389.97 750.146 389.41C750.846 388.85 751.815 388.383 753.051 388.01C754.311 387.637 755.711 387.45 757.251 387.45C760.378 387.45 762.723 388.103 764.286 389.41C765.85 390.717 766.631 392.583 766.631 395.01V405.055C766.631 405.312 766.538 405.533 766.351 405.72C766.165 405.907 765.943 406 765.686 406H759.561C759.305 406 759.083 405.907 758.896 405.72C758.71 405.533 758.616 405.312 758.616 405.055V404.075C757.52 405.592 755.921 406.35 753.821 406.35C751.721 406.35 750.03 405.825 748.746 404.775C747.486 403.702 746.856 402.372 746.856 400.785ZM756.061 401.17C757.578 401.17 758.336 400.26 758.336 398.44L756.271 398.895C755.245 399.128 754.731 399.56 754.731 400.19C754.731 400.47 754.848 400.703 755.081 400.89C755.315 401.077 755.641 401.17 756.061 401.17ZM777.605 388.745V389.97C779.238 388.523 781.058 387.8 783.065 387.8H784.745C785.002 387.8 785.223 387.893 785.41 388.08C785.597 388.267 785.69 388.488 785.69 388.745V394.205C785.69 394.462 785.597 394.683 785.41 394.87C785.223 395.057 785.002 395.15 784.745 395.15H780.23C779.6 395.15 779.098 395.302 778.725 395.605C778.375 395.885 778.177 396.27 778.13 396.76V405.055C778.13 405.312 778.037 405.533 777.85 405.72C777.663 405.907 777.442 406 777.185 406H770.535C770.278 406 770.057 405.907 769.87 405.72C769.683 405.533 769.59 405.312 769.59 405.055V388.745C769.59 388.488 769.683 388.267 769.87 388.08C770.057 387.893 770.278 387.8 770.535 387.8H776.66C776.917 387.8 777.138 387.893 777.325 388.08C777.512 388.267 777.605 388.488 777.605 388.745ZM806.98 398.965H796.55V399.14C796.55 400.563 797.005 401.275 797.915 401.275C798.171 401.275 798.486 401.088 798.86 400.715C799.233 400.342 799.641 400.155 800.085 400.155H806.7C807.213 400.155 807.47 400.412 807.47 400.925C807.47 402.068 806.606 403.258 804.88 404.495C803.176 405.732 800.855 406.35 797.915 406.35C794.998 406.35 792.606 405.592 790.74 404.075C788.896 402.535 787.975 400.423 787.975 397.74V396.06C787.975 393.517 788.92 391.452 790.81 389.865C792.7 388.255 795.173 387.45 798.23 387.45C801.31 387.45 803.69 388.348 805.37 390.145C807.073 391.942 807.925 394.217 807.925 396.97V398.02C807.925 398.277 807.831 398.498 807.645 398.685C807.458 398.872 807.236 398.965 806.98 398.965ZM799.35 394.45C799.35 393.05 798.883 392.35 797.95 392.35C797.016 392.35 796.55 393.05 796.55 394.45V394.59H799.35V394.45ZM820.689 387.8H826.604C827.14 387.8 827.514 388.08 827.724 388.64L830.594 396.62L833.569 388.64C833.802 388.08 834.199 387.8 834.759 387.8H840.604C840.814 387.8 841 387.882 841.164 388.045C841.327 388.185 841.409 388.337 841.409 388.5C841.409 388.663 841.397 388.792 841.374 388.885L831.504 411.81C831.27 412.37 830.862 412.65 830.279 412.65H824.539C824.329 412.65 824.142 412.58 823.979 412.44C823.839 412.3 823.769 412.125 823.769 411.915C823.769 411.728 823.78 411.612 823.804 411.565L826.604 404.845L819.849 388.885C819.825 388.815 819.814 388.733 819.814 388.64C819.907 388.08 820.199 387.8 820.689 387.8ZM842.97 398.09V395.71C842.97 393.05 843.915 391.008 845.805 389.585C847.695 388.162 850.133 387.45 853.12 387.45C856.106 387.45 858.545 388.162 860.435 389.585C862.325 391.008 863.27 393.05 863.27 395.71V398.09C863.27 400.773 862.36 402.827 860.54 404.25C858.72 405.65 856.246 406.35 853.12 406.35C849.993 406.35 847.52 405.65 845.7 404.25C843.88 402.827 842.97 400.773 842.97 398.09ZM854.695 398.37V395.43C854.695 394.543 854.578 393.925 854.345 393.575C854.111 393.225 853.703 393.05 853.12 393.05C852.536 393.05 852.128 393.225 851.895 393.575C851.661 393.925 851.545 394.543 851.545 395.43V398.37C851.545 399.303 851.661 399.933 851.895 400.26C852.128 400.587 852.536 400.75 853.12 400.75C853.703 400.75 854.111 400.575 854.345 400.225C854.578 399.875 854.695 399.257 854.695 398.37ZM866.083 398.405V388.745C866.083 388.488 866.177 388.267 866.363 388.08C866.55 387.893 866.772 387.8 867.028 387.8H873.713C873.97 387.8 874.192 387.893 874.378 388.08C874.565 388.267 874.658 388.488 874.658 388.745V398.16C874.658 399.443 875.242 400.085 876.408 400.085C877.575 400.085 878.158 399.443 878.158 398.16V388.745C878.158 388.488 878.252 388.267 878.438 388.08C878.625 387.893 878.847 387.8 879.103 387.8H885.753C886.01 387.8 886.232 387.893 886.418 388.08C886.605 388.267 886.698 388.488 886.698 388.745V405.055C886.698 405.312 886.605 405.533 886.418 405.72C886.232 405.907 886.01 406 885.753 406H879.628C879.372 406 879.15 405.907 878.963 405.72C878.777 405.533 878.683 405.312 878.683 405.055V403.9C877.587 405.533 875.65 406.35 872.873 406.35C870.96 406.35 869.35 405.685 868.043 404.355C866.737 403.002 866.083 401.018 866.083 398.405ZM900.789 381.15C902.329 381.15 903.694 381.313 904.884 381.64C906.097 381.943 907.054 382.328 907.754 382.795C908.454 383.262 909.037 383.81 909.504 384.44C910.251 385.467 910.624 386.505 910.624 387.555C910.624 388.582 910.414 389.538 909.994 390.425C909.574 391.288 909.107 392 908.594 392.56C908.104 393.097 907.509 393.727 906.809 394.45C906.109 395.15 905.631 395.687 905.374 396.06C905.117 396.433 904.954 396.667 904.884 396.76C904.651 397.017 904.371 397.145 904.044 397.145H896.554C896.391 397.145 896.239 397.087 896.099 396.97C895.959 396.83 895.889 396.69 895.889 396.55C895.889 395.943 896.262 395.173 897.009 394.24C897.756 393.307 898.421 392.583 899.004 392.07C900.567 390.74 901.349 389.748 901.349 389.095C901.349 388.745 901.232 388.477 900.999 388.29C900.789 388.08 900.451 387.975 899.984 387.975C899.541 387.975 899.156 388.092 898.829 388.325C898.526 388.535 898.327 388.78 898.234 389.06C898.024 389.783 897.569 390.145 896.869 390.145H890.359C890.102 390.145 889.892 390.04 889.729 389.83C889.566 389.62 889.484 389.375 889.484 389.095V389.06C889.484 387.053 890.464 385.233 892.424 383.6C894.407 381.967 897.196 381.15 900.789 381.15ZM896.904 398.545H903.309C903.566 398.545 903.787 398.638 903.974 398.825C904.161 399.012 904.254 399.233 904.254 399.49V405.055C904.254 405.312 904.161 405.533 903.974 405.72C903.787 405.907 903.566 406 903.309 406H896.904C896.647 406 896.426 405.907 896.239 405.72C896.052 405.533 895.959 405.312 895.959 405.055V399.49C895.959 399.233 896.052 399.012 896.239 398.825C896.426 398.638 896.647 398.545 896.904 398.545Z" fill="#3D5A80"/>
</svg>
