<svg width="1345" height="1211" viewBox="0 0 1345 1211" fill="none" xmlns="http://www.w3.org/2000/svg">
<rect y="91.8612" width="1345" height="1119.14" rx="40" fill="#98C1D9" fill-opacity="0.39"/>
<ellipse rx="105" ry="114.01" transform="matrix(-1 0 0 1 1143 121.244)" fill="#FFD5CD"/>
<path d="M1135.12 42.9144C1135.12 42.9144 1089.2 50.7091 1092.69 121.695C1092.7 121.958 1087.38 125.792 1086.96 126.201C1083.25 129.842 1080.14 134.506 1078.78 139.961C1073.93 159.386 1091.26 179.401 1105.27 184.714C1110.51 186.698 1116.04 187.661 1121.59 187.836C1157.63 188.975 1205.35 164.12 1207.8 115.579C1207.88 113.837 1207.91 112.094 1207.86 110.355C1207.65 101.138 1205.6 92.1616 1202.51 83.8272C1202.51 83.8275 1182.45 29.8433 1135.12 42.9144Z" fill="#E2BA87"/>
<g style="mix-blend-mode:multiply" opacity="0.5">
<path d="M1091.54 122.724C1092.03 124.051 1092.52 125.742 1092.65 126.704C1093.23 130.832 1091.91 135.029 1089.64 138.001C1087.48 140.824 1084.41 142.597 1081.44 143.205C1080.44 143.41 1079.23 143.492 1078.17 143.494C1079.32 131.637 1088.31 124.804 1091.54 122.724Z" fill="#FCC3B8"/>
</g>
<g style="mix-blend-mode:multiply" opacity="0.5">
<path d="M1156.16 153.506C1147.68 151.251 1142.46 141.501 1144.5 131.729C1146.54 121.957 1155.07 115.864 1163.56 118.119C1172.04 120.374 1177.26 130.124 1175.22 139.896C1173.18 149.667 1164.64 155.761 1156.16 153.506Z" fill="#FCC3B8"/>
</g>
<path opacity="0.3" d="M1114.49 125.912C1114.49 125.912 1107.21 118.393 1101.57 125.463Z" fill="#8B5E3C"/>
<path d="M1182.39 161.978C1207.05 176.074 1228.94 144.609 1221.61 126.011C1216.94 114.148 1203.67 112.627 1196.11 122.915C1191.64 128.986 1188.06 136.845 1186.07 144.43" fill="#E2BA87"/>
<path opacity="0.3" d="M1202.29 133.816C1199.18 137.044 1196.7 141.933 1193.62 144.581C1194.14 139.934 1195 134.986 1197.11 130.876C1199.26 126.7 1203.2 123.363 1207.25 123.842C1212.28 124.437 1216.48 130.79 1217.07 136.4C1216.72 133.043 1210.31 130.483 1207.88 130.686C1204.14 138.081 1202.83 152.94 1202.83 152.94C1199.56 144.341 1200.77 137.754 1202.29 133.816Z" fill="#8B5E3C"/>
<path d="M1207.65 110.464C1207.69 112.206 1207.67 113.951 1207.58 115.694C1194.3 118.146 1188.02 133.617 1186.53 141.046C1186.53 141.046 1182.58 141.299 1181.65 140.478C1176.77 137.699 1168.09 126.307 1172.42 102.967C1174.51 92.3577 1173.11 83.9106 1156.03 70.7604C1138.95 57.6101 1111.77 65.8347 1106.19 70.7604C1101.73 74.701 1099.59 76.1913 1099.08 76.4439C1110.99 47.0631 1135.09 42.9571 1135.09 42.9571C1185.49 29.0814 1202.4 83.3753 1202.56 83.8324C1205.65 92.1752 1207.43 101.238 1207.65 110.464Z" fill="#21625A"/>
<path d="M1156.03 41.2062C1134.42 42.5702 1123.1 57.6883 1120.13 65.0768C1117.35 79.0204 1102.82 85.6637 1095.91 87.2425C1093.54 96.1845 1092.95 114.46 1092.95 122.291C1086.39 126.08 1082.43 131.7 1081.27 134.226C1082.84 127.406 1080.92 125.511 1079.7 117.554C1078.48 109.598 1087.2 98.9883 1090.16 94.8205C1093.12 90.6526 1088.07 76.4438 1091.03 68.8658C1093.99 61.2878 1103.58 54.6571 1108.63 54.0887C1113.69 53.5204 1113.51 45.9424 1128.32 39.5011C1140.17 34.3481 1151.73 38.4907 1156.03 41.2062Z" fill="#238D81"/>
<path d="M1078.31 149.003C1078.73 154.762 1081.79 161.949 1083.19 164.727C1089.11 174.427 1097.85 181.02 1101.31 182.915C1090.72 190.493 1078.02 187.146 1073.25 184.809C1073.95 184.178 1075.52 182.119 1076.22 178.936C1077.09 174.958 1071.16 169.274 1071.86 162.075C1072.42 156.316 1076.39 150.961 1078.31 149.003Z" fill="#238D81"/>
<mask id="mask0" mask-type="alpha" maskUnits="userSpaceOnUse" x="1071" y="37" width="86" height="151">
<path d="M1156.03 41.2063C1134.42 42.5703 1123.1 57.6884 1120.13 65.077C1117.35 79.0205 1102.82 85.6638 1095.91 87.2426C1093.54 96.1846 1092.95 114.46 1092.95 122.291C1086.39 126.08 1082.43 131.7 1081.27 134.226C1082.84 127.406 1080.92 125.511 1079.7 117.555C1078.48 109.598 1087.2 98.9885 1090.16 94.8206C1093.12 90.6527 1088.07 76.4439 1091.03 68.8659C1093.99 61.288 1103.58 54.6572 1108.63 54.0889C1113.69 53.5205 1113.51 45.9425 1128.32 39.5012C1140.17 34.3482 1151.73 38.4908 1156.03 41.2063Z" fill="#238D81"/>
<path d="M1078.31 149.003C1078.73 154.762 1081.79 161.949 1083.19 164.728C1089.11 174.427 1097.85 181.02 1101.31 182.915C1090.72 190.493 1078.02 187.146 1073.25 184.809C1073.95 184.178 1075.52 182.119 1076.22 178.936C1077.09 174.958 1071.16 169.274 1071.86 162.075C1072.42 156.316 1076.39 150.961 1078.31 149.003Z" fill="#238D81"/>
</mask>
<g mask="url(#mask0)">
<path d="M1109.68 74.7389C1114 71.1015 1116.82 64.8875 1117.69 62.2352C1116.47 64.7085 1112.12 70.6717 1104.45 74.7389C1096.78 78.8061 1093.93 83.3801 1093.47 85.1587C1096.26 79.6646 1104.27 79.2857 1109.68 74.7389Z" fill="#DCDCDC" style="mix-blend-mode:multiply"/>
<path d="M1084.58 119.828C1084.3 116.494 1085.28 112.25 1085.8 110.545C1085.8 112.376 1085.98 116.797 1086.67 119.828C1087.37 122.859 1089.17 125.259 1089.98 126.08L1084.58 129.869C1086.85 126.459 1084.93 123.996 1084.58 119.828Z" fill="#DCDCDC" style="mix-blend-mode:multiply"/>
<path d="M1076.57 167.19C1075.03 163.553 1075.93 160.118 1076.57 158.855C1076.57 166.243 1079.35 166.054 1082.14 172.116C1084.93 178.179 1082.84 184.241 1084.58 183.294C1085.98 182.536 1086.56 180.705 1086.67 179.884C1087.37 184.582 1086.38 188.409 1085.8 189.735C1080.92 190.341 1077.61 187.209 1076.57 185.567C1080.92 178.557 1078.48 171.737 1076.57 167.19Z" fill="#DCDCDC" style="mix-blend-mode:multiply"/>
</g>
<path d="M1118.24 135.568C1105.81 136.433 1098.13 135.568 1095.65 135.568C1085.21 133.866 1080.75 153.92 1093.85 164.442C1097.77 167.584 1099.69 167.095 1108.05 167.095C1116.41 167.095 1125.45 170.486 1130.51 168.937C1144.82 164.548 1147.34 153.268 1146.05 147.06C1144.31 138.662 1140.78 134.001 1118.24 135.568Z" fill="white"/>
<mask id="mask1" mask-type="alpha" maskUnits="userSpaceOnUse" x="1085" y="135" width="62" height="35">
<path d="M1118.24 135.568C1105.81 136.433 1098.13 135.568 1095.65 135.568C1085.21 133.866 1080.75 153.92 1093.85 164.442C1097.77 167.584 1099.69 167.095 1108.05 167.095C1116.41 167.095 1125.45 170.486 1130.51 168.937C1144.82 164.548 1147.34 153.268 1146.05 147.06C1144.31 138.662 1140.78 134.001 1118.24 135.568Z" fill="white"/>
</mask>
<g mask="url(#mask1)">
<path fill-rule="evenodd" clip-rule="evenodd" d="M1141.18 170.505L1135.11 129.822L1133.05 130.187L1139.12 170.87L1141.18 170.505ZM1114.24 175.908L1112.75 134.386L1110.66 134.475L1112.15 175.996L1114.24 175.908ZM1090.98 164.62L1095.72 131.904L1093.66 131.55L1088.92 164.265L1090.98 164.62Z" fill="#D1D3D4"/>
</g>
<path d="M1122.38 116.823C1127.46 112.865 1133.47 113.447 1136.51 114.438C1136.71 114.502 1136.87 114.252 1136.74 114.095C1129.62 105.665 1124.21 111.802 1122.07 116.596C1121.98 116.788 1122.21 116.952 1122.38 116.823Z" fill="#2A1200"/>
<path d="M1094.77 113.881C1094.78 116.897 1096.03 120.136 1099.24 119.764C1101.94 119.451 1102.63 115.602 1102.62 113.708C1102.62 110.393 1101.09 107.262 1098.87 107.258C1096.47 107.253 1094.77 110.865 1094.77 113.881Z" fill="#2A1200"/>
<path d="M1124.55 90.5448C1129.31 89.7017 1134.41 91.6387 1137.84 95.5675C1138.95 96.8343 1139.26 99.081 1138.1 100.511C1137.03 101.835 1135.09 102.24 1133.91 100.882C1133.56 100.475 1133.19 100.089 1132.79 99.7316C1132.67 99.6202 1132.33 99.4225 1132.23 99.2582C1132.17 99.2155 1132.11 99.1728 1132.05 99.1315C1131.67 98.875 1131.29 98.6403 1130.9 98.4274C1130.67 98.3057 1130.44 98.1929 1130.21 98.0858C1130.14 98.0525 1130.07 98.0207 1129.99 97.9888C1129.79 97.9504 1129.56 97.8312 1129.37 97.7763C1129.13 97.7045 1128.89 97.6418 1128.64 97.5863C1128.22 97.4897 1127.79 97.4169 1127.35 97.3696C1127.29 97.3629 1127.23 97.3579 1127.17 97.3527C1126.94 97.3539 1126.71 97.3492 1126.47 97.3595C1125.98 97.382 1125.48 97.4424 1124.99 97.5286C1123.45 97.8017 1121.85 96.1524 1121.81 94.3411C1121.76 92.3472 1122.9 90.8372 1124.55 90.5448Z" fill="#2A1200"/>
<path d="M1092.57 96.4989C1094.3 93.9085 1096.84 92.2087 1099.58 91.7153C1100.32 91.5823 1101.18 91.8909 1101.76 92.4284C1102.33 92.9576 1102.81 93.8906 1102.86 94.7616C1102.91 95.6659 1102.74 96.6363 1102.22 97.3474C1101.7 98.0685 1101.04 98.5264 1100.23 98.6721C1100.1 98.6956 1099.98 98.736 1099.84 98.767C1099.46 98.912 1099.08 99.0913 1098.72 99.3015C1098.31 99.6069 1097.92 99.9538 1097.55 100.342C1097.44 100.496 1097.31 100.644 1097.2 100.808C1096.73 101.517 1095.97 102.022 1095.21 102.133C1094.49 102.238 1093.59 101.986 1093.03 101.418C1092.45 100.831 1091.99 100.016 1091.93 99.0847C1091.88 98.1561 1092.06 97.2492 1092.57 96.4989Z" fill="#2A1200"/>
</svg>
