<svg width="200" height="200" viewBox="0 0 200 200" fill="none" xmlns="http://www.w3.org/2000/svg">
<ellipse rx="100" ry="94.71" transform="matrix(-1 0 0 1 100 105.29)" fill="#C6EFEA"/>
<path d="M83.2152 35.6491C83.2152 35.6491 39.6056 42.1243 42.9125 101.093C42.9246 101.312 37.8702 104.496 37.4743 104.837C33.95 107.861 30.993 111.735 29.7 116.267C25.0956 132.404 41.5573 149.031 54.8693 153.444C59.8416 155.092 65.0974 155.893 70.3635 156.038C104.597 156.984 149.92 136.336 152.248 96.0128C152.332 94.566 152.352 93.1177 152.313 91.6727C152.107 84.0162 150.159 76.5595 147.224 69.636C147.226 69.6363 128.173 24.7908 83.2152 35.6491Z" fill="#A47539"/>
<g style="mix-blend-mode:multiply" opacity="0.5">
<path d="M42.138 102.412C42.4496 103.523 42.7305 104.931 42.7685 105.724C42.929 109.126 41.4752 112.477 39.3065 114.774C37.2474 116.955 34.4928 118.228 31.9172 118.555C31.0477 118.665 30.0086 118.663 29.1055 118.605C31.0342 108.993 39.228 103.927 42.138 102.412Z" fill="#FEB3A4"/>
</g>
<g style="mix-blend-mode:multiply" opacity="0.5">
<path d="M101.969 126.808C94.5932 124.543 90.7386 116.443 93.3597 108.718C95.9807 100.993 104.085 96.5667 111.461 98.8323C118.837 101.098 122.691 109.197 120.07 116.922C117.449 124.648 109.345 129.074 101.969 126.808Z" fill="#FEB3A4"/>
</g>
<path opacity="0.3" d="M63.6238 104.597C63.6238 104.597 56.706 98.3505 51.3504 104.223L63.6238 104.597Z" fill="#633B1D"/>
<path d="M128.199 133.452C147.49 145.882 169.426 121.002 165.268 105.541C162.615 95.6796 151.574 93.9437 144.059 102.063C139.624 106.854 135.741 113.139 133.224 119.258" fill="#A47539"/>
<path opacity="0.3" d="M147.853 111.115C144.835 113.629 142.177 117.52 139.251 119.562C140.214 115.796 141.501 111.798 143.758 108.528C146.051 105.206 149.787 102.634 153.198 103.175C157.424 103.846 160.308 109.178 160.192 113.769C160.261 111.021 155.073 108.698 152.972 108.773C148.964 114.659 146.192 126.713 146.192 126.713C144.353 119.587 146.121 114.267 147.853 111.115Z" fill="#633B1D"/>
<path d="M67.7787 53.4299C78.567 67.594 102.965 96.7091 136.492 107.096C138.76 103.424 142.799 99.5734 150.101 99.6993C159.23 99.8567 162.549 106.152 162.549 106.152C162.549 106.152 173.172 122.991 148.608 133.693C141.803 134.952 139.645 134.952 134.168 132.749C130.461 135.477 118.699 144.773 114.583 146.283C115.634 151.582 117.49 164.791 114.968 170.835C119.781 171.254 131.512 173.573 140.807 168.789C141.743 163.399 142.566 156.341 141.101 153.65C142.85 156.36 146.005 162.547 146.005 166.113C151.316 164.382 163.133 159.566 167.913 154.152C175.326 121.103 177.985 40.997 102.965 34.2297C96.3814 33.4953 79.5961 34.1353 68.4427 41.3117C54.5009 50.2823 47.53 62.2431 44.8744 74.2039C50.5728 71.6859 63.1315 64.0058 67.7787 53.4299Z" fill="#E2BA87"/>
<path d="M40.3932 166.113C42.6504 163.091 41.3337 149.379 40.3931 144.71C49.6878 152.106 55.1649 155.726 74.2518 156.198C70.9323 160.92 57.9863 162.651 56.4926 163.28L53.837 161.549V164.067C50.252 165.2 43.3807 165.903 40.3932 166.113Z" fill="#E2BA87"/>
<mask id="mask0" mask-type="alpha" maskUnits="userSpaceOnUse" x="44" y="33" width="59" height="42">
<path d="M69.2723 40.9975C80.4257 33.821 96.3812 33.4957 102.965 34.2302C101.147 43.568 95.5387 63.4397 80.0607 68.224C75.5225 62.647 70.105 57.4564 67.7785 53.4304C63.1313 64.0063 50.5727 71.6863 44.8742 74.2044C47.5298 62.2436 55.3305 49.9681 69.2723 40.9975Z" fill="#E2BA87"/>
</mask>
<g mask="url(#mask0)">
<path d="M71.7846 51.7984C71.7846 51.7984 74.532 48.711 80.5247 49.2267C80.5247 49.2267 76.2795 47.0408 73.5334 47.298C73.5334 47.298 81.024 42.0247 92.0109 45.3692C92.0109 45.3692 84.2707 40.2245 78.1518 40.8674C78.1518 40.8674 84.6438 38.1672 88.7642 38.8101C88.7642 38.8101 85.5175 34.9512 81.2737 35.0798C81.2737 35.0798 84.6452 29.4208 89.889 27.6206C89.889 27.6206 79.4014 30.4508 76.6553 32.5081C70.5378 34.9512 64.9195 42.1547 64.9195 42.1547C66.7918 41.126 69.7888 41.3832 69.7888 41.3832C64.9195 44.2134 61.1735 49.4853 61.1735 49.4853C63.5451 47.9423 66.4173 48.4566 66.4173 48.4566C61.7976 52.8298 60.2998 58.4889 60.2998 58.4889C60.9239 56.6887 65.4188 54.5014 65.4188 54.5014C63.6713 57.4602 63.2968 62.2178 63.2968 62.2178L67.0428 57.5874C67.0428 57.5874 74.6582 63.6322 76.6566 64.4037C76.6566 64.4037 70.9136 58.7446 70.5391 56.173C70.5391 56.173 79.1544 58.3589 86.0209 59.2604C86.0182 59.2576 76.4043 52.3127 71.7846 51.7984Z" fill="#D9AC74"/>
</g>
<path d="M91.015 67.2799C95.6622 72.8406 110.799 86.3542 134.168 95.9228C126.755 91.5162 107.745 79.6184 91.015 67.2799Z" fill="#D9AC74"/>
<path d="M152.757 95.9228C139.214 68.7278 111.706 53.3256 99.6456 49.0239C130.716 54.06 151.429 83.1227 157.902 97.0245C156.707 96.5209 153.974 96.0802 152.757 95.9228Z" fill="#D9AC74"/>
<path d="M159.728 128.815C159.064 129.602 157.139 130.829 156.076 131.333C156.505 138.234 157.154 151.627 156.821 157.568C156.733 158.407 156.649 159.165 156.574 159.819C156.686 159.307 156.766 158.536 156.821 157.568C157.445 151.606 158.301 141.573 158.068 136.054C159.285 140.251 161.354 141.657 159.894 159.032C161.443 147.805 163.844 135.614 159.728 128.815Z" fill="#D9AC74"/>
<path d="M48.6918 150.848C47.7623 150.47 46.2022 149.432 45.5383 148.959C46.7333 150.848 46.2575 160.343 45.8702 164.855C46.6669 164.225 47.198 161.865 47.364 160.763C47.8951 162.4 48.9131 162.494 48.6918 164.855C50.1523 161.707 48.8577 155.884 48.6918 150.848Z" fill="#D9AC74"/>
<path d="M123.38 148.33C124.973 162.053 124.21 165.799 122.882 171.622H126.201H129.521C131.911 160.543 125.814 155.255 123.38 148.33Z" fill="#D9AC74"/>
<path d="M56.1719 119.721C53.0705 119.803 50.0965 118.96 47.5353 116.434C46.1952 115.113 44.8362 114.385 42.9132 115.516C38.3096 118.222 37.2257 124.983 38.4632 129.516C39.8218 134.49 43.9146 138.5 48.6312 141.116C61.3231 148.153 71.0581 146.57 84.0457 142.071C94.2686 138.53 108.09 131.394 104.586 119.111C100.248 103.904 81.5502 111.205 71.0004 115.308C66.5209 117.051 61.1801 119.589 56.1719 119.721Z" fill="white"/>
<mask id="mask1" mask-type="alpha" maskUnits="userSpaceOnUse" x="37" y="109" width="69" height="37">
<path d="M56.1719 119.721C53.0705 119.803 50.0965 118.96 47.5353 116.434C46.1952 115.113 44.8362 114.385 42.9132 115.516C38.3096 118.222 37.2257 124.983 38.4632 129.516C39.8218 134.49 43.9146 138.5 48.6312 141.116C61.3231 148.153 71.0581 146.57 84.0457 142.071C94.2686 138.53 108.09 131.394 104.586 119.111C100.248 103.904 81.5502 111.205 71.0004 115.308C66.5209 117.051 61.1801 119.589 56.1719 119.721Z" fill="white"/>
</mask>
<g mask="url(#mask1)">
<path fill-rule="evenodd" clip-rule="evenodd" d="M98.515 136.613L85.2285 104.782L83.3791 105.477L96.6655 137.309L98.515 136.613ZM71.2142 146.898L62.0371 113.497L60.1121 113.974L69.2892 147.375L71.2142 146.898ZM43.9003 138.834L48.9641 114.346L47.012 113.982L41.9482 138.47L43.9003 138.834Z" fill="#D1D3D4"/>
</g>
<path d="M74.4099 94.6703C74.4175 98.4083 76.4748 101.442 80.7467 100.82C83.8217 100.039 85.8686 97.9814 85.8606 94.0613C85.8521 89.9538 83.332 87.2884 80.7189 87.2837C77.2261 87.2774 74.4022 90.9322 74.4099 94.6703Z" fill="#2A1200"/>
<path fill-rule="evenodd" clip-rule="evenodd" d="M52.458 92.3136C50.5826 92.4185 47.9997 92.2324 46.2655 91.0916C45.6448 92.1269 45.2846 93.42 45.2871 94.6028C45.2922 97.1084 46.4871 99.7993 49.5449 99.49C52.111 99.2304 52.7661 96.0329 52.7629 94.4589C52.7613 93.7168 52.6546 92.9857 52.458 92.3136Z" fill="#2A1200"/>
<path d="M73.804 75.0431C78.3631 74.4882 83.1648 76.2518 86.3106 79.618C87.325 80.7034 87.5531 82.5781 86.412 83.7306C85.3579 84.7967 83.4993 85.0738 82.4137 83.9105C82.0883 83.5618 81.7474 83.2303 81.3843 82.9215C81.2714 82.8253 80.9546 82.6509 80.8578 82.5112C80.8025 82.4739 80.7485 82.4368 80.6918 82.4006C80.3431 82.1763 79.9838 81.9697 79.6151 81.781C79.4037 81.673 79.1903 81.5724 78.9738 81.4765C78.9055 81.4466 78.837 81.418 78.7673 81.3892C78.5757 81.3512 78.358 81.2451 78.1838 81.1939C77.9566 81.127 77.7285 81.0676 77.4973 81.0141C77.0941 80.9209 76.6862 80.8474 76.2759 80.7949C76.2183 80.7875 76.1617 80.7815 76.104 80.7753C75.8818 80.7693 75.6602 80.7582 75.4371 80.7596C74.9628 80.7632 74.4897 80.7982 74.0177 80.8548C72.5445 81.0346 71.0737 79.6168 71.0833 78.1115C71.0963 76.4546 72.2257 75.2357 73.804 75.0431Z" fill="#71472D"/>
<path d="M44.7963 86.988C47.2591 88.2571 50.0844 88.5425 52.6274 87.8453C53.3137 87.657 53.9401 87.0894 54.2338 86.4617C54.5234 85.8435 54.5824 84.9581 54.297 84.2857C54.0003 83.5878 53.4938 82.924 52.7798 82.5928C52.0561 82.2568 51.3161 82.1704 50.5705 82.3738C50.4485 82.4075 50.3234 82.4269 50.1991 82.4546C49.8122 82.4963 49.4234 82.5073 49.031 82.4915C48.5595 82.4239 48.0951 82.3149 47.6367 82.1651C47.477 82.0955 47.3137 82.0336 47.1574 81.9534C46.4828 81.6064 45.6388 81.5235 44.9481 81.7344C44.2869 81.9363 43.6086 82.4761 43.3424 83.119C43.0661 83.7847 42.9738 84.5759 43.2791 85.2951C43.5832 86.012 44.0827 86.6206 44.7963 86.988Z" fill="#71472D"/>
</svg>
