<svg width="1345" height="1255" viewBox="0 0 1345 1255" fill="none" xmlns="http://www.w3.org/2000/svg">
<rect y="105" width="1345" height="1150" rx="40" fill="#98C1D9" fill-opacity="0.39"/>
<ellipse rx="105" ry="101.771" transform="matrix(-1 0 0 1 986 108.229)" fill="#FFD5CD"/>
<path d="M978.117 38.3076C978.117 38.3076 932.205 45.2655 935.686 108.631C935.699 108.866 930.378 112.288 929.961 112.653C926.25 115.904 923.137 120.067 921.776 124.936C916.928 142.276 934.259 160.143 948.274 164.885C953.509 166.656 959.043 167.516 964.587 167.672C1000.63 168.689 1048.35 146.502 1050.8 103.172C1050.88 101.617 1050.91 100.061 1050.86 98.508C1050.65 90.2807 1048.6 82.2681 1045.51 74.8284C1045.51 74.8287 1025.45 26.6397 978.117 38.3076Z" fill="#E2BA87"/>
<g style="mix-blend-mode:multiply" opacity="0.5">
<path d="M934.613 109.377C935.067 110.558 935.511 112.067 935.625 112.928C936.107 116.623 934.743 120.42 932.47 123.137C930.311 125.717 927.279 127.375 924.368 127.983C923.385 128.188 922.199 128.287 921.163 128.312C922.518 117.639 931.425 111.313 934.613 109.377Z" fill="#FCC3B8"/>
</g>
<g style="mix-blend-mode:multiply" opacity="0.5">
<path d="M998.875 137.308C990.55 135.45 985.584 126.747 987.784 117.869C989.984 108.991 998.516 103.3 1006.84 105.158C1015.17 107.016 1020.13 115.719 1017.93 124.597C1015.73 133.475 1007.2 139.166 998.875 137.308Z" fill="#FCC3B8"/>
</g>
<path opacity="0.3" d="M957.492 112.396C957.492 112.396 950.208 105.684 944.57 111.994Z" fill="#8B5E3C"/>
<path d="M1025.41 145.18C1049.31 157.378 1071.41 128.619 1064.59 112.023C1060.25 101.437 1047.27 100.332 1039.64 109.743C1035.14 115.297 1031.48 122.443 1029.36 129.31" fill="#E2BA87"/>
<path opacity="0.3" d="M1045.44 119.476C1042.32 122.448 1039.78 126.903 1036.7 129.351C1037.31 125.153 1038.26 120.676 1040.42 116.929C1042.6 113.123 1046.54 110.036 1050.52 110.388C1055.45 110.824 1059.45 116.466 1059.91 121.51C1059.63 118.492 1053.39 116.312 1051 116.543C1047.18 123.283 1045.58 136.702 1045.58 136.702C1042.55 129.017 1043.87 123.056 1045.44 119.476Z" fill="#8B5E3C"/>
<path d="M1050.65 98.6061C1050.69 100.16 1050.67 101.718 1050.58 103.274C1037.3 105.463 1031.02 119.274 1029.53 125.905C1029.53 125.905 1025.58 126.13 1024.65 125.398C1019.77 122.917 1011.09 112.748 1015.42 91.9134C1017.51 82.4431 1016.11 74.9028 999.034 63.1643C981.955 51.4257 954.769 58.7673 949.192 63.1643C944.73 66.6818 942.592 68.0122 942.081 68.2376C953.989 42.0108 978.088 38.3456 978.088 38.3456C1028.49 25.9595 1045.4 74.425 1045.56 74.833C1048.65 82.2802 1050.43 90.3706 1050.65 98.6061Z" fill="#21625A"/>
<path d="M999.034 36.7827C977.424 38.0003 966.096 51.4955 963.134 58.0909C960.345 70.5376 945.823 76.4678 938.91 77.877C936.54 85.8592 935.947 102.173 935.947 109.163C929.395 112.545 925.433 117.562 924.271 119.817C925.84 113.729 923.923 112.038 922.703 104.935C921.483 97.8323 930.196 88.362 933.159 84.6415C936.122 80.9211 931.068 68.2376 934.03 61.4731C936.993 54.7086 946.578 48.7897 951.632 48.2824C956.686 47.775 956.511 41.0105 971.324 35.2607C983.175 30.6608 994.735 34.3588 999.034 36.7827Z" fill="#238D81"/>
<path d="M921.309 133.008C921.727 138.149 924.794 144.564 926.188 147.044C932.105 155.703 940.853 161.588 944.312 163.279C933.717 170.043 921.018 167.056 916.255 164.97C916.952 164.406 918.52 162.569 919.217 159.727C920.089 156.176 914.163 151.103 914.86 144.676C915.418 139.535 919.392 134.755 921.309 133.008Z" fill="#238D81"/>
<mask id="mask0" mask-type="alpha" maskUnits="userSpaceOnUse" x="914" y="33" width="86" height="135">
<path d="M999.034 36.7828C977.424 38.0004 966.096 51.4956 963.134 58.091C960.345 70.5377 945.823 76.4679 938.91 77.8772C936.54 85.8593 935.947 102.173 935.947 109.163C929.395 112.545 925.433 117.562 924.271 119.817C925.84 113.729 923.923 112.038 922.703 104.935C921.483 97.8324 930.196 88.3621 933.159 84.6417C936.122 80.9212 931.068 68.2378 934.03 61.4733C936.993 54.7088 946.578 48.7898 951.632 48.2825C956.686 47.7751 956.511 41.0107 971.324 35.2608C983.175 30.661 994.735 34.3589 999.034 36.7828Z" fill="#238D81"/>
<path d="M921.309 133.008C921.727 138.149 924.794 144.564 926.188 147.044C932.105 155.703 940.853 161.588 944.312 163.279C933.717 170.043 921.018 167.056 916.255 164.97C916.952 164.406 918.52 162.569 919.217 159.728C920.089 156.176 914.163 151.103 914.86 144.677C915.418 139.536 919.392 134.755 921.309 133.008Z" fill="#238D81"/>
</mask>
<g mask="url(#mask0)">
<path d="M952.677 66.7157C956.999 63.4688 959.822 57.9219 960.694 55.5543C959.474 57.7621 955.117 63.0852 947.449 66.7157C939.781 70.3463 936.935 74.4293 936.47 76.0169C939.258 71.1127 947.275 70.7744 952.677 66.7157Z" fill="#DCDCDC" style="mix-blend-mode:multiply"/>
<path d="M927.582 106.965C927.303 103.988 928.279 100.2 928.802 98.678C928.802 100.313 928.976 104.259 929.673 106.965C930.371 109.67 932.171 111.812 932.985 112.545L927.582 115.927C929.848 112.883 927.931 110.685 927.582 106.965Z" fill="#DCDCDC" style="mix-blend-mode:multiply"/>
<path d="M919.566 149.243C918.032 145.996 918.927 142.929 919.566 141.802C919.566 148.397 922.354 148.228 925.142 153.64C927.931 159.051 925.839 164.463 927.582 163.617C928.976 162.941 929.557 161.306 929.673 160.573C930.371 164.767 929.383 168.183 928.802 169.367C923.922 169.908 920.611 167.112 919.566 165.647C923.922 159.389 921.483 153.301 919.566 149.243Z" fill="#DCDCDC" style="mix-blend-mode:multiply"/>
</g>
<path d="M961.243 121.015C948.813 121.787 941.128 121.015 938.649 121.015C928.21 119.496 923.748 137.397 936.853 146.79C940.765 149.594 942.695 149.157 951.05 149.157C959.414 149.157 968.455 152.184 973.505 150.802C987.821 146.884 990.336 136.815 989.051 131.273C987.313 123.777 983.775 119.616 961.243 121.015Z" fill="white"/>
<mask id="mask1" mask-type="alpha" maskUnits="userSpaceOnUse" x="928" y="120" width="62" height="32">
<path d="M961.243 121.015C948.813 121.787 941.128 121.015 938.649 121.015C928.21 119.496 923.748 137.397 936.853 146.79C940.765 149.594 942.695 149.157 951.05 149.157C959.414 149.157 968.455 152.184 973.505 150.802C987.821 146.884 990.336 136.815 989.051 131.273C987.313 123.777 983.775 119.616 961.243 121.015Z" fill="white"/>
</mask>
<g mask="url(#mask1)">
<path fill-rule="evenodd" clip-rule="evenodd" d="M984.185 152.202L978.109 115.886L976.048 116.212L982.123 152.528L984.185 152.202ZM957.238 157.024L955.749 119.96L953.662 120.039L955.151 157.103L957.238 157.024ZM933.979 146.948L938.723 117.744L936.66 117.428L931.915 146.632L933.979 146.948Z" fill="#D1D3D4"/>
</g>
<path d="M965.395 104.269C970.46 100.759 976.445 101.268 979.488 102.148C979.688 102.205 979.842 101.954 979.698 101.803C972.625 94.3759 967.249 99.7628 965.094 104.025C965 104.209 965.225 104.387 965.395 104.269Z" fill="#2A1200"/>
<path d="M937.774 101.656C937.78 104.348 939.034 107.24 942.245 106.907C944.939 106.629 945.627 103.193 945.624 101.501C945.618 98.5428 944.092 95.7478 941.866 95.7437C939.472 95.7393 937.769 98.9635 937.774 101.656Z" fill="#2A1200"/>
<path d="M967.547 80.8252C972.31 80.0726 977.415 81.8017 980.842 85.3088C981.947 86.4395 982.256 88.4451 981.101 89.7219C980.035 90.9032 978.095 91.2645 976.912 90.0525C976.558 89.6892 976.187 89.3449 975.795 89.0258C975.673 88.9264 975.334 88.7499 975.227 88.6032C975.168 88.5651 975.11 88.527 975.049 88.4901C974.675 88.2612 974.29 88.0517 973.896 87.8617C973.67 87.753 973.442 87.6523 973.212 87.5567C973.139 87.527 973.066 87.4986 972.992 87.4701C972.789 87.4359 972.557 87.3294 972.372 87.2804C972.131 87.2164 971.889 87.1604 971.645 87.1108C971.218 87.0246 970.788 86.9596 970.355 86.9174C970.294 86.9114 970.235 86.9069 970.174 86.9023C969.94 86.9034 969.707 86.8992 969.473 86.9083C968.976 86.9284 968.481 86.9823 967.987 87.0593C966.448 87.3031 964.852 85.8309 964.806 84.214C964.758 82.4341 965.898 81.0862 967.547 80.8252Z" fill="#2A1200"/>
<path d="M935.565 86.1402C937.295 83.8278 939.837 82.3105 942.579 81.8701C943.319 81.7513 944.183 82.0268 944.76 82.5066C945.329 82.979 945.806 83.8119 945.856 84.5894C945.907 85.3966 945.743 86.2628 945.224 86.8976C944.698 87.5412 944.038 87.95 943.234 88.0801C943.103 88.101 942.975 88.1371 942.844 88.1648C942.457 88.2942 942.084 88.4543 941.719 88.6419C941.305 88.9145 940.916 89.2242 940.553 89.5707C940.435 89.7084 940.31 89.8401 940.2 89.9866C939.726 90.6193 938.965 91.0702 938.21 91.169C937.487 91.2635 936.588 91.0378 936.029 90.5312C935.45 90.0069 934.986 89.28 934.933 88.4484C934.88 87.6195 935.064 86.8099 935.565 86.1402Z" fill="#2A1200"/>
</svg>
