<svg width="1345" height="1081" viewBox="0 0 1345 1081" fill="none" xmlns="http://www.w3.org/2000/svg">
<rect y="82" width="1345" height="999" rx="40" fill="#98C1D9" fill-opacity="0.39"/>
<ellipse rx="105" ry="101.771" transform="matrix(-1 0 0 1 1143 108.229)" fill="#FFD5CD"/>
<path d="M1135.12 38.3076C1135.12 38.3076 1089.2 45.2655 1092.69 108.631C1092.7 108.866 1087.38 112.288 1086.96 112.653C1083.25 115.904 1080.14 120.067 1078.78 124.936C1073.93 142.276 1091.26 160.143 1105.27 164.885C1110.51 166.656 1116.04 167.516 1121.59 167.672C1157.63 168.689 1205.35 146.502 1207.8 103.172C1207.88 101.617 1207.91 100.061 1207.86 98.508C1207.65 90.2807 1205.6 82.2681 1202.51 74.8284C1202.51 74.8287 1182.45 26.6397 1135.12 38.3076Z" fill="#E2BA87"/>
<g style="mix-blend-mode:multiply" opacity="0.5">
<path d="M1091.61 109.377C1092.07 110.558 1092.51 112.067 1092.62 112.928C1093.11 116.623 1091.74 120.42 1089.47 123.137C1087.31 125.717 1084.28 127.375 1081.37 127.983C1080.38 128.188 1079.2 128.287 1078.16 128.312C1079.52 117.639 1088.42 111.313 1091.61 109.377Z" fill="#FCC3B8"/>
</g>
<g style="mix-blend-mode:multiply" opacity="0.5">
<path d="M1155.87 137.308C1147.55 135.45 1142.58 126.747 1144.78 117.869C1146.98 108.991 1155.52 103.3 1163.84 105.158C1172.17 107.016 1177.13 115.719 1174.93 124.597C1172.73 133.475 1164.2 139.166 1155.87 137.308Z" fill="#FCC3B8"/>
</g>
<path opacity="0.3" d="M1114.49 112.396C1114.49 112.396 1107.21 105.684 1101.57 111.994Z" fill="#8B5E3C"/>
<path d="M1182.41 145.18C1206.31 157.378 1228.41 128.619 1221.59 112.023C1217.25 101.437 1204.27 100.332 1196.64 109.743C1192.14 115.297 1188.48 122.443 1186.36 129.31" fill="#E2BA87"/>
<path opacity="0.3" d="M1202.44 119.476C1199.32 122.448 1196.78 126.903 1193.7 129.351C1194.31 125.153 1195.26 120.676 1197.42 116.929C1199.6 113.123 1203.54 110.036 1207.52 110.388C1212.45 110.824 1216.45 116.466 1216.91 121.51C1216.63 118.492 1210.39 116.312 1208 116.543C1204.18 123.283 1202.58 136.702 1202.58 136.702C1199.55 129.017 1200.87 123.056 1202.44 119.476Z" fill="#8B5E3C"/>
<path d="M1207.65 98.6061C1207.69 100.16 1207.67 101.718 1207.58 103.274C1194.3 105.463 1188.02 119.274 1186.53 125.905C1186.53 125.905 1182.58 126.13 1181.65 125.398C1176.77 122.917 1168.09 112.748 1172.42 91.9134C1174.51 82.4431 1173.11 74.9028 1156.03 63.1643C1138.95 51.4257 1111.77 58.7673 1106.19 63.1643C1101.73 66.6818 1099.59 68.0122 1099.08 68.2376C1110.99 42.0108 1135.09 38.3456 1135.09 38.3456C1185.49 25.9595 1202.4 74.425 1202.56 74.833C1205.65 82.2802 1207.43 90.3706 1207.65 98.6061Z" fill="#21625A"/>
<path d="M1156.03 36.7827C1134.42 38.0003 1123.1 51.4955 1120.13 58.0909C1117.35 70.5376 1102.82 76.4678 1095.91 77.877C1093.54 85.8592 1092.95 102.173 1092.95 109.163C1086.39 112.545 1082.43 117.562 1081.27 119.817C1082.84 113.729 1080.92 112.038 1079.7 104.935C1078.48 97.8323 1087.2 88.362 1090.16 84.6415C1093.12 80.9211 1088.07 68.2376 1091.03 61.4731C1093.99 54.7086 1103.58 48.7897 1108.63 48.2824C1113.69 47.775 1113.51 41.0105 1128.32 35.2607C1140.17 30.6608 1151.73 34.3588 1156.03 36.7827Z" fill="#238D81"/>
<path d="M1078.31 133.008C1078.73 138.149 1081.79 144.564 1083.19 147.044C1089.11 155.703 1097.85 161.588 1101.31 163.279C1090.72 170.043 1078.02 167.056 1073.25 164.97C1073.95 164.406 1075.52 162.569 1076.22 159.727C1077.09 156.176 1071.16 151.103 1071.86 144.676C1072.42 139.535 1076.39 134.755 1078.31 133.008Z" fill="#238D81"/>
<mask id="mask0" mask-type="alpha" maskUnits="userSpaceOnUse" x="1071" y="33" width="86" height="135">
<path d="M1156.03 36.7828C1134.42 38.0004 1123.1 51.4956 1120.13 58.091C1117.35 70.5377 1102.82 76.4679 1095.91 77.8772C1093.54 85.8593 1092.95 102.173 1092.95 109.163C1086.39 112.545 1082.43 117.562 1081.27 119.817C1082.84 113.729 1080.92 112.038 1079.7 104.935C1078.48 97.8324 1087.2 88.3621 1090.16 84.6417C1093.12 80.9212 1088.07 68.2378 1091.03 61.4733C1093.99 54.7088 1103.58 48.7898 1108.63 48.2825C1113.69 47.7751 1113.51 41.0107 1128.32 35.2608C1140.17 30.661 1151.73 34.3589 1156.03 36.7828Z" fill="#238D81"/>
<path d="M1078.31 133.008C1078.73 138.149 1081.79 144.564 1083.19 147.044C1089.11 155.703 1097.85 161.588 1101.31 163.279C1090.72 170.043 1078.02 167.056 1073.25 164.97C1073.95 164.406 1075.52 162.569 1076.22 159.728C1077.09 156.176 1071.16 151.103 1071.86 144.677C1072.42 139.536 1076.39 134.755 1078.31 133.008Z" fill="#238D81"/>
</mask>
<g mask="url(#mask0)">
<path d="M1109.68 66.7157C1114 63.4688 1116.82 57.9219 1117.69 55.5543C1116.47 57.7621 1112.12 63.0852 1104.45 66.7157C1096.78 70.3463 1093.93 74.4293 1093.47 76.0169C1096.26 71.1127 1104.27 70.7744 1109.68 66.7157Z" fill="#DCDCDC" style="mix-blend-mode:multiply"/>
<path d="M1084.58 106.965C1084.3 103.988 1085.28 100.2 1085.8 98.678C1085.8 100.313 1085.98 104.259 1086.67 106.965C1087.37 109.67 1089.17 111.812 1089.98 112.545L1084.58 115.927C1086.85 112.883 1084.93 110.685 1084.58 106.965Z" fill="#DCDCDC" style="mix-blend-mode:multiply"/>
<path d="M1076.57 149.243C1075.03 145.996 1075.93 142.929 1076.57 141.802C1076.57 148.397 1079.35 148.228 1082.14 153.64C1084.93 159.051 1082.84 164.463 1084.58 163.617C1085.98 162.941 1086.56 161.306 1086.67 160.573C1087.37 164.767 1086.38 168.183 1085.8 169.367C1080.92 169.908 1077.61 167.112 1076.57 165.647C1080.92 159.389 1078.48 153.301 1076.57 149.243Z" fill="#DCDCDC" style="mix-blend-mode:multiply"/>
</g>
<path d="M1118.24 121.015C1105.81 121.787 1098.13 121.015 1095.65 121.015C1085.21 119.496 1080.75 137.397 1093.85 146.79C1097.77 149.594 1099.69 149.157 1108.05 149.157C1116.41 149.157 1125.45 152.184 1130.51 150.802C1144.82 146.884 1147.34 136.815 1146.05 131.273C1144.31 123.777 1140.78 119.616 1118.24 121.015Z" fill="white"/>
<mask id="mask1" mask-type="alpha" maskUnits="userSpaceOnUse" x="1085" y="120" width="62" height="32">
<path d="M1118.24 121.015C1105.81 121.787 1098.13 121.015 1095.65 121.015C1085.21 119.496 1080.75 137.397 1093.85 146.79C1097.77 149.594 1099.69 149.157 1108.05 149.157C1116.41 149.157 1125.45 152.184 1130.51 150.802C1144.82 146.884 1147.34 136.815 1146.05 131.273C1144.31 123.777 1140.78 119.616 1118.24 121.015Z" fill="white"/>
</mask>
<g mask="url(#mask1)">
<path fill-rule="evenodd" clip-rule="evenodd" d="M1141.18 152.202L1135.11 115.886L1133.05 116.212L1139.12 152.528L1141.18 152.202ZM1114.24 157.024L1112.75 119.96L1110.66 120.039L1112.15 157.103L1114.24 157.024ZM1090.98 146.948L1095.72 117.744L1093.66 117.428L1088.92 146.632L1090.98 146.948Z" fill="#D1D3D4"/>
</g>
<path d="M1122.39 104.269C1127.46 100.759 1133.44 101.268 1136.49 102.148C1136.69 102.205 1136.84 101.954 1136.7 101.803C1129.63 94.3759 1124.25 99.7628 1122.09 104.025C1122 104.209 1122.22 104.387 1122.39 104.269Z" fill="#2A1200"/>
<path d="M1094.77 101.656C1094.78 104.348 1096.03 107.24 1099.24 106.907C1101.94 106.629 1102.63 103.193 1102.62 101.501C1102.62 98.5428 1101.09 95.7478 1098.87 95.7437C1096.47 95.7393 1094.77 98.9635 1094.77 101.656Z" fill="#2A1200"/>
<path d="M1124.55 80.8252C1129.31 80.0726 1134.41 81.8017 1137.84 85.3088C1138.95 86.4395 1139.26 88.4451 1138.1 89.7219C1137.03 90.9032 1135.09 91.2645 1133.91 90.0525C1133.56 89.6892 1133.19 89.3449 1132.79 89.0258C1132.67 88.9264 1132.33 88.7499 1132.23 88.6032C1132.17 88.5651 1132.11 88.527 1132.05 88.4901C1131.67 88.2612 1131.29 88.0517 1130.9 87.8617C1130.67 87.753 1130.44 87.6523 1130.21 87.5567C1130.14 87.527 1130.07 87.4986 1129.99 87.4701C1129.79 87.4359 1129.56 87.3294 1129.37 87.2804C1129.13 87.2164 1128.89 87.1604 1128.64 87.1108C1128.22 87.0246 1127.79 86.9596 1127.35 86.9174C1127.29 86.9114 1127.23 86.9069 1127.17 86.9023C1126.94 86.9034 1126.71 86.8992 1126.47 86.9083C1125.98 86.9284 1125.48 86.9823 1124.99 87.0593C1123.45 87.3031 1121.85 85.8309 1121.81 84.214C1121.76 82.4341 1122.9 81.0862 1124.55 80.8252Z" fill="#2A1200"/>
<path d="M1092.57 86.1402C1094.29 83.8278 1096.84 82.3105 1099.58 81.8701C1100.32 81.7513 1101.18 82.0268 1101.76 82.5066C1102.33 82.979 1102.81 83.8119 1102.86 84.5894C1102.91 85.3966 1102.74 86.2628 1102.22 86.8976C1101.7 87.5412 1101.04 87.95 1100.23 88.0801C1100.1 88.101 1099.97 88.1371 1099.84 88.1648C1099.46 88.2942 1099.08 88.4543 1098.72 88.6419C1098.3 88.9145 1097.92 89.2242 1097.55 89.5707C1097.44 89.7084 1097.31 89.8401 1097.2 89.9866C1096.73 90.6193 1095.97 91.0702 1095.21 91.169C1094.49 91.2635 1093.59 91.0378 1093.03 90.5312C1092.45 90.0069 1091.99 89.28 1091.93 88.4484C1091.88 87.6195 1092.06 86.8099 1092.57 86.1402Z" fill="#2A1200"/>
</svg>
